<svg width="34" height="32" viewBox="0 0 34 32" fill="none" xmlns="http://www.w3.org/2000/svg">
<path d="M16.3904 30.0254H15.9618C15.5347 30.0254 15.1885 30.3716 15.1885 30.7987V31.2273C15.1885 31.6544 15.5347 32.0007 15.9618 32.0007H16.3904C16.8175 32.0007 17.1638 31.6544 17.1638 31.2273V30.7987C17.1638 30.3716 16.8175 30.0254 16.3904 30.0254Z" fill="#E0A700"/>
<path d="M18.7537 30.0254H18.3251C17.898 30.0254 17.5518 30.3716 17.5518 30.7987V31.2273C17.5518 31.6544 17.898 32.0007 18.3251 32.0007H18.7537C19.1808 32.0007 19.527 31.6544 19.527 31.2273V30.7987C19.527 30.3716 19.1808 30.0254 18.7537 30.0254Z" fill="#E0A700"/>
<path d="M18.7537 27.7812H18.3251C17.898 27.7812 17.5518 28.1275 17.5518 28.5546V28.9832C17.5518 29.4103 17.898 29.7565 18.3251 29.7565H18.7537C19.1808 29.7565 19.527 29.4103 19.527 28.9832V28.5546C19.527 28.1275 19.1808 27.7812 18.7537 27.7812Z" fill="#E0A700"/>
<path d="M16.3904 27.7812H15.9618C15.5347 27.7812 15.1885 28.1275 15.1885 28.5546V28.9832C15.1885 29.4103 15.5347 29.7565 15.9618 29.7565H16.3904C16.8175 29.7565 17.1638 29.4103 17.1638 28.9832V28.5546C17.1638 28.1275 16.8175 27.7812 16.3904 27.7812Z" fill="#E0A700"/>
<path d="M20.2521 0H14.3886C14.2036 0 14.0341 0.111036 13.962 0.28246L0.760391 31.3258C0.629874 31.6317 0.853895 31.9706 1.187 31.9706H8.07319C8.18618 31.9706 8.29526 31.9297 8.37903 31.8557L17.0184 24.2663C17.1918 24.1143 17.4528 24.1124 17.6281 24.2643L26.4273 31.8596C26.511 31.9317 26.6182 31.9726 26.7292 31.9726H33.5355C33.8686 31.9726 34.0927 31.6317 33.9621 31.3258L20.6787 0.280512C20.6066 0.109088 20.4372 0 20.2521 0ZM13.286 19.032L16.9269 9.98351C17.0827 9.59391 17.634 9.59586 17.7879 9.98546L21.3605 19.0339C21.4813 19.3378 21.2573 19.667 20.93 19.667H13.7185C13.3893 19.667 13.1653 19.3359 13.288 19.03L13.286 19.032Z" fill="#0D0D0F"/>
</svg>
