<svg width="121" height="32" viewBox="0 0 121 32" fill="none" xmlns="http://www.w3.org/2000/svg">
<g clip-path="url(#clip0_2120_5277)">
<path d="M0.15918 30.1216L2.86501 23.541H3.61543L6.30323 30.1216H5.13791L3.03097 24.7929H3.42422L1.29924 30.1216H0.15918ZM1.49406 28.8517V27.91H4.98278V28.8517H1.49406Z" fill="#0D0D0F"/>
<path d="M7.10742 30.1217V23.3535H8.14285V30.1217H7.10742Z" fill="#0D0D0F"/>
<path d="M9.28711 30.1225V25.6091H10.3225V30.1225H9.28711ZM12.2852 30.1225V27.4347C12.2852 27.1352 12.1914 26.9007 12.0038 26.7348C11.8162 26.5688 11.5853 26.4858 11.3075 26.4858C11.1199 26.4858 10.9503 26.5219 10.806 26.5977C10.6581 26.6734 10.5426 26.7817 10.4524 26.9224C10.3658 27.0631 10.3189 27.2326 10.3189 27.4347L9.91486 27.2074C9.91486 26.861 9.99063 26.5652 10.1422 26.3126C10.2937 26.0601 10.4957 25.8653 10.7519 25.7246C11.008 25.5839 11.2966 25.5117 11.6177 25.5117C11.9388 25.5117 12.2238 25.5803 12.4836 25.7174C12.7434 25.8545 12.9454 26.0493 13.0933 26.3018C13.2412 26.5544 13.3206 26.8538 13.3206 27.2038V30.1189H12.2852V30.1225ZM15.2832 30.1225V27.4347C15.2832 27.1352 15.1894 26.9007 15.0018 26.7348C14.8142 26.5688 14.5833 26.4858 14.3055 26.4858C14.1251 26.4858 13.9592 26.5219 13.8077 26.5977C13.6561 26.6734 13.5371 26.7817 13.4505 26.9224C13.3639 27.0631 13.317 27.2326 13.317 27.4347L12.7325 27.2074C12.765 26.861 12.866 26.5652 13.032 26.3126C13.1979 26.0601 13.418 25.8653 13.685 25.7246C13.952 25.5839 14.2442 25.5117 14.5653 25.5117C14.8864 25.5117 15.1858 25.5803 15.4492 25.7174C15.7126 25.8545 15.9218 26.0493 16.0806 26.3018C16.2393 26.5544 16.3151 26.8538 16.3151 27.2038V30.1189H15.2796L15.2832 30.1225Z" fill="#0D0D0F"/>
<path d="M19.2734 30.2166C18.8658 30.2166 18.4978 30.1119 18.1695 29.9063C17.8412 29.7006 17.5814 29.4192 17.3902 29.0657C17.199 28.7121 17.1016 28.3153 17.1016 27.8751C17.1016 27.435 17.1954 27.0309 17.3902 26.6773C17.5814 26.3238 17.8412 26.0424 18.1695 25.8295C18.4978 25.6202 18.8658 25.5156 19.2734 25.5156C19.6198 25.5156 19.9228 25.5878 20.1898 25.7357C20.4568 25.8836 20.666 26.0857 20.8248 26.3418C20.9835 26.598 21.0593 26.8902 21.0593 27.2149V28.5137C21.0593 28.8384 20.9835 29.1306 20.8284 29.3868C20.6733 29.6429 20.464 29.845 20.1934 29.9929C19.9228 30.1408 19.6162 30.2129 19.2734 30.2129V30.2166ZM19.443 29.2388C19.8254 29.2388 20.1357 29.109 20.3702 28.8528C20.6047 28.5967 20.7238 28.2684 20.7238 27.8643C20.7238 27.5937 20.6697 27.3556 20.565 27.1499C20.4604 26.9443 20.3089 26.782 20.1177 26.6665C19.9265 26.5511 19.7028 26.4933 19.4466 26.4933C19.1905 26.4933 18.974 26.5511 18.7828 26.6665C18.5916 26.782 18.44 26.9443 18.3318 27.1499C18.2236 27.3556 18.1659 27.5937 18.1659 27.8643C18.1659 28.1349 18.22 28.373 18.3318 28.5786C18.44 28.7843 18.5916 28.9466 18.7828 29.0621C18.974 29.1775 19.1941 29.2352 19.4466 29.2352L19.443 29.2388ZM20.6552 30.1228V28.9105L20.8356 27.8102L20.6552 26.7206V25.6094H21.6907V30.1228H20.6552Z" fill="#0D0D0F"/>
<path d="M22.834 30.1225V25.6091H23.8694V30.1225H22.834ZM25.9259 30.1225V27.5176C25.9259 27.2182 25.8284 26.9693 25.6372 26.7744C25.446 26.5796 25.2007 26.4822 24.8976 26.4822C24.6956 26.4822 24.5188 26.5255 24.3637 26.6121C24.2085 26.6987 24.0859 26.8213 23.9957 26.9801C23.9091 27.1352 23.8622 27.3156 23.8622 27.5176L23.4581 27.2904C23.4581 26.944 23.5339 26.641 23.6854 26.374C23.8369 26.107 24.0426 25.8978 24.3096 25.7426C24.5765 25.5875 24.876 25.5117 25.2079 25.5117C25.5398 25.5117 25.8465 25.5983 26.1098 25.7715C26.3732 25.9447 26.5789 26.1647 26.7304 26.4389C26.8819 26.7131 26.9577 26.9945 26.9577 27.2904V30.1189H25.9222L25.9259 30.1225Z" fill="#0D0D0F"/>
<path d="M29.4906 30.2166C29.2417 30.2166 28.9999 30.1841 28.7654 30.1191C28.5345 30.0542 28.3217 29.9604 28.1269 29.8377C27.932 29.7151 27.7625 29.5672 27.6182 29.3904L28.2748 28.7338C28.4299 28.9142 28.6103 29.0512 28.8159 29.1414C29.018 29.2316 29.2489 29.2785 29.505 29.2785C29.7359 29.2785 29.9127 29.2425 30.0318 29.1739C30.1508 29.1054 30.2122 29.0043 30.2122 28.8745C30.2122 28.7446 30.1544 28.6291 30.0426 28.5534C29.9308 28.4776 29.7828 28.4127 29.6061 28.3622C29.4257 28.308 29.2381 28.2539 29.0432 28.1962C28.8448 28.1385 28.6572 28.0627 28.4804 27.9653C28.3036 27.8679 28.1557 27.7344 28.0439 27.5648C27.932 27.3953 27.8743 27.1752 27.8743 26.9082C27.8743 26.6196 27.9429 26.3707 28.0764 26.165C28.2098 25.9594 28.4011 25.797 28.65 25.6852C28.8989 25.5733 29.1948 25.5156 29.5375 25.5156C29.9019 25.5156 30.223 25.5806 30.5008 25.7068C30.7786 25.8331 31.0131 26.0279 31.2007 26.2841L30.5441 26.9407C30.4106 26.7783 30.2627 26.6557 30.0931 26.5727C29.9235 26.4897 29.7287 26.45 29.5086 26.45C29.303 26.45 29.1406 26.4825 29.0288 26.5438C28.917 26.6052 28.8592 26.699 28.8592 26.818C28.8592 26.9443 28.917 27.0417 29.0288 27.1103C29.1406 27.1788 29.2886 27.2401 29.4653 27.2907C29.6421 27.3412 29.8333 27.3953 30.0282 27.4566C30.223 27.5179 30.4142 27.5973 30.591 27.7019C30.7714 27.8066 30.9157 27.9437 31.0275 28.1168C31.1394 28.29 31.1971 28.5137 31.1971 28.7879C31.1971 29.228 31.0419 29.5744 30.7353 29.8305C30.4286 30.0867 30.0101 30.2166 29.4834 30.2166H29.4906Z" fill="#0D0D0F"/>
<path d="M33.9463 30.2166C33.5386 30.2166 33.1706 30.1119 32.8423 29.9063C32.514 29.7006 32.2542 29.4192 32.063 29.0657C31.8718 28.7121 31.7744 28.3153 31.7744 27.8751C31.7744 27.435 31.8682 27.0309 32.063 26.6773C32.2542 26.3238 32.514 26.0424 32.8423 25.8295C33.1706 25.6202 33.5386 25.5156 33.9463 25.5156C34.2926 25.5156 34.5957 25.5878 34.8627 25.7357C35.1296 25.8836 35.3389 26.0857 35.4976 26.3418C35.6564 26.598 35.7321 26.8902 35.7321 27.2149V28.5137C35.7321 28.8384 35.6564 29.1306 35.5012 29.3868C35.3461 29.6429 35.1369 29.845 34.8663 29.9929C34.5957 30.1408 34.289 30.2129 33.9463 30.2129V30.2166ZM34.1159 29.2388C34.4983 29.2388 34.8086 29.109 35.0431 28.8528C35.2776 28.5967 35.3966 28.2684 35.3966 27.8643C35.3966 27.5937 35.3425 27.3556 35.2379 27.1499C35.1333 26.9443 34.9817 26.782 34.7905 26.6665C34.5993 26.5511 34.3756 26.4933 34.1195 26.4933C33.8633 26.4933 33.6469 26.5511 33.4556 26.6665C33.2644 26.782 33.1129 26.9443 33.0047 27.1499C32.8964 27.3556 32.8387 27.5937 32.8387 27.8643C32.8387 28.1349 32.8928 28.373 33.0047 28.5786C33.1129 28.7843 33.2644 28.9466 33.4556 29.0621C33.6469 29.1775 33.8669 29.2352 34.1195 29.2352L34.1159 29.2388ZM35.3281 30.1228V28.9105L35.5085 27.8102L35.3281 26.7206V25.6094H36.3635V30.1228H35.3281Z" fill="#0D0D0F"/>
<path d="M37.5098 30.1217V23.3535H38.5452V30.1217H37.5098ZM40.6016 30.1217V27.5169C40.6016 27.2174 40.5042 26.9685 40.313 26.7737C40.1218 26.5789 39.8765 26.4815 39.5734 26.4815C39.3714 26.4815 39.1946 26.5248 39.0395 26.6113C38.8843 26.6979 38.7617 26.8206 38.6715 26.9793C38.5849 27.1345 38.538 27.3149 38.538 27.5169L38.1339 27.2896C38.1339 26.9433 38.2097 26.6402 38.3612 26.3732C38.5127 26.1062 38.7184 25.897 38.9853 25.7419C39.2523 25.5867 39.5518 25.511 39.8837 25.511C40.2156 25.511 40.5223 25.5867 40.7856 25.7383C41.049 25.8898 41.2546 26.0954 41.4062 26.3624C41.5577 26.6294 41.6335 26.936 41.6335 27.2896V30.1181H40.598L40.6016 30.1217Z" fill="#0D0D0F"/>
<path d="M44.2211 30.1216L46.9269 23.541H47.6773L50.3651 30.1216H49.1998L47.0929 24.7929H47.4861L45.3611 30.1216H44.2139H44.2211ZM45.556 28.8517V27.91H49.0447V28.8517H45.556Z" fill="#0D0D0F"/>
<path d="M51.1699 30.1217V23.3535H52.2054V30.1217H51.1699Z" fill="#0D0D0F"/>
<path d="M55.2393 30.2166C54.8316 30.2166 54.4636 30.1119 54.1353 29.9063C53.807 29.7006 53.5472 29.4192 53.356 29.0657C53.1648 28.7121 53.0674 28.3153 53.0674 27.8751C53.0674 27.435 53.1612 27.0309 53.356 26.6773C53.5472 26.3238 53.807 26.0424 54.1353 25.8295C54.4636 25.6202 54.8316 25.5156 55.2393 25.5156C55.5856 25.5156 55.8887 25.5878 56.1556 25.7357C56.4226 25.8836 56.6319 26.0857 56.7906 26.3418C56.9494 26.598 57.0251 26.8902 57.0251 27.2149V28.5137C57.0251 28.8384 56.9494 29.1306 56.7942 29.3868C56.6391 29.6429 56.4298 29.845 56.1593 29.9929C55.8887 30.1408 55.582 30.2129 55.2393 30.2129V30.2166ZM55.4088 29.2388C55.7913 29.2388 56.1015 29.109 56.336 28.8528C56.5705 28.5967 56.6896 28.2684 56.6896 27.8643C56.6896 27.5937 56.6355 27.3556 56.5309 27.1499C56.4262 26.9443 56.2747 26.782 56.0835 26.6665C55.8923 26.5511 55.6686 26.4933 55.4124 26.4933C55.1563 26.4933 54.9398 26.5511 54.7486 26.6665C54.5574 26.782 54.4059 26.9443 54.2976 27.1499C54.1894 27.3556 54.1317 27.5937 54.1317 27.8643C54.1317 28.1349 54.1858 28.373 54.2976 28.5786C54.4059 28.7843 54.5574 28.9466 54.7486 29.0621C54.9398 29.1775 55.1599 29.2352 55.4124 29.2352L55.4088 29.2388ZM56.621 30.1228V28.9105L56.8014 27.8102L56.621 26.7206V25.6094H57.6565V30.1228H56.621Z" fill="#0D0D0F"/>
<path d="M60.6934 30.2166C60.2857 30.2166 59.9177 30.1119 59.5894 29.9063C59.2611 29.7006 59.0013 29.4192 58.8101 29.0657C58.6189 28.7121 58.5215 28.3153 58.5215 27.8751C58.5215 27.435 58.6153 27.0309 58.8101 26.6773C59.0013 26.3238 59.2611 26.0424 59.5894 25.8295C59.9177 25.6202 60.2857 25.5156 60.6934 25.5156C61.0397 25.5156 61.3428 25.5878 61.6097 25.7357C61.8767 25.8836 62.086 26.0857 62.2447 26.3418C62.4035 26.598 62.4792 26.8902 62.4792 27.2149V28.5137C62.4792 28.8384 62.4035 29.1306 62.2483 29.3868C62.0932 29.6429 61.8839 29.845 61.6133 29.9929C61.3428 30.1408 61.0361 30.2129 60.6934 30.2129V30.2166ZM60.8629 29.2388C61.2454 29.2388 61.5556 29.109 61.7901 28.8528C62.0246 28.5967 62.1437 28.2684 62.1437 27.8643C62.1437 27.5937 62.0896 27.3556 61.9849 27.1499C61.8803 26.9443 61.7288 26.782 61.5376 26.6665C61.3464 26.5511 61.1227 26.4933 60.8665 26.4933C60.6104 26.4933 60.3939 26.5511 60.2027 26.6665C60.0115 26.782 59.86 26.9443 59.7517 27.1499C59.6435 27.3556 59.5858 27.5937 59.5858 27.8643C59.5858 28.1349 59.6399 28.373 59.7517 28.5786C59.86 28.7843 60.0115 28.9466 60.2027 29.0621C60.3939 29.1775 60.614 29.2352 60.8665 29.2352L60.8629 29.2388ZM62.0751 32.0024V29.0116L62.2555 27.922L62.0751 26.8216V25.6094H63.1106V32.0024H62.0751Z" fill="#0D0D0F"/>
<path d="M66.1455 30.2166C65.7378 30.2166 65.3698 30.1119 65.0415 29.9063C64.7132 29.7006 64.4535 29.4192 64.2623 29.0657C64.071 28.7121 63.9736 28.3153 63.9736 27.8751C63.9736 27.435 64.0674 27.0309 64.2623 26.6773C64.4535 26.3238 64.7132 26.0424 65.0415 25.8295C65.3698 25.6202 65.7378 25.5156 66.1455 25.5156C66.4919 25.5156 66.7949 25.5878 67.0619 25.7357C67.3289 25.8836 67.5381 26.0857 67.6969 26.3418C67.8556 26.598 67.9314 26.8902 67.9314 27.2149V28.5137C67.9314 28.8384 67.8556 29.1306 67.7005 29.3868C67.5453 29.6429 67.3361 29.845 67.0655 29.9929C66.7949 30.1408 66.4883 30.2129 66.1455 30.2129V30.2166ZM66.3151 29.2388C66.6975 29.2388 67.0078 29.109 67.2423 28.8528C67.4768 28.5967 67.5958 28.2684 67.5958 27.8643C67.5958 27.5937 67.5417 27.3556 67.4371 27.1499C67.3325 26.9443 67.1809 26.782 66.9897 26.6665C66.7985 26.5511 66.5748 26.4933 66.3187 26.4933C66.0625 26.4933 65.8461 26.5511 65.6549 26.6665C65.4636 26.782 65.3121 26.9443 65.2039 27.1499C65.0956 27.3556 65.0379 27.5937 65.0379 27.8643C65.0379 28.1349 65.092 28.373 65.2039 28.5786C65.3121 28.7843 65.4636 28.9466 65.6549 29.0621C65.8461 29.1775 66.0661 29.2352 66.3187 29.2352L66.3151 29.2388ZM67.5273 30.1228V28.9105L67.7077 27.8102L67.5273 26.7206V25.6094H68.5627V30.1228H67.5273Z" fill="#0D0D0F"/>
<path d="M69.71 30.1228V25.6094H70.7454V30.1228H69.71ZM70.7454 27.6117L70.3882 27.4314C70.3882 26.8613 70.5145 26.3995 70.7706 26.046C71.0232 25.6924 71.4092 25.5156 71.9215 25.5156C72.1488 25.5156 72.3509 25.5553 72.5312 25.6383C72.7116 25.7213 72.8812 25.8511 73.0399 26.0315L72.3617 26.7278C72.2787 26.6413 72.1885 26.5763 72.0875 26.5402C71.9865 26.5042 71.871 26.4825 71.7411 26.4825C71.4525 26.4825 71.2144 26.5727 71.0268 26.7567C70.8392 26.9371 70.7454 27.2221 70.7454 27.6117Z" fill="#0D0D0F"/>
<path d="M74.0609 24.7821C73.8841 24.7821 73.7398 24.7244 73.6243 24.6017C73.5089 24.4826 73.4512 24.3347 73.4512 24.1616C73.4512 23.9884 73.5089 23.8405 73.6243 23.7214C73.7398 23.6023 73.8877 23.541 74.0609 23.541C74.2341 23.541 74.3892 23.6023 74.501 23.7214C74.6129 23.8405 74.6706 23.9884 74.6706 24.1616C74.6706 24.3347 74.6129 24.4826 74.501 24.6017C74.3892 24.7208 74.2413 24.7821 74.0609 24.7821ZM73.545 30.1216V25.6083H74.5804V30.1216H73.545Z" fill="#0D0D0F"/>
<path d="M77.625 30.2166C77.2173 30.2166 76.8493 30.1119 76.521 29.9063C76.1927 29.7006 75.933 29.4192 75.7417 29.0657C75.5505 28.7121 75.4531 28.3153 75.4531 27.8751C75.4531 27.435 75.5469 27.0309 75.7417 26.6773C75.933 26.3238 76.1927 26.0424 76.521 25.8295C76.8493 25.6202 77.2173 25.5156 77.625 25.5156C77.9714 25.5156 78.2744 25.5878 78.5414 25.7357C78.8084 25.8836 79.0176 26.0857 79.1764 26.3418C79.3351 26.598 79.4109 26.8902 79.4109 27.2149V28.5137C79.4109 28.8384 79.3351 29.1306 79.18 29.3868C79.0248 29.6429 78.8156 29.845 78.545 29.9929C78.2744 30.1408 77.9677 30.2129 77.625 30.2129V30.2166ZM77.7946 29.2388C78.177 29.2388 78.4873 29.109 78.7218 28.8528C78.9563 28.5967 79.0753 28.2684 79.0753 27.8643C79.0753 27.5937 79.0212 27.3556 78.9166 27.1499C78.812 26.9443 78.6604 26.782 78.4692 26.6665C78.278 26.5511 78.0543 26.4933 77.7982 26.4933C77.542 26.4933 77.3256 26.5511 77.1344 26.6665C76.9431 26.782 76.7916 26.9443 76.6834 27.1499C76.5751 27.3556 76.5174 27.5937 76.5174 27.8643C76.5174 28.1349 76.5715 28.373 76.6834 28.5786C76.7916 28.7843 76.9431 28.9466 77.1344 29.0621C77.3256 29.1775 77.5456 29.2352 77.7982 29.2352L77.7946 29.2388ZM79.0068 30.1228V28.9105L79.1872 27.8102L79.0068 26.7206V25.6094H80.0422V30.1228H79.0068Z" fill="#0D0D0F"/>
<path d="M1.08277 12.0918C1.68888 11.4857 2.42126 11.1791 3.27991 11.1791H6.25272V14.96C6.25272 15.8006 6.57742 16.2191 7.22682 16.2191H7.58759V17.4169H7.22682C6.36817 17.4169 5.80535 17.0273 5.52755 16.2444C5.01164 17.0273 4.26122 17.4169 3.27991 17.4169C2.41404 17.4169 1.67805 17.1139 1.07195 16.5042C0.462233 15.9017 0.15918 15.1657 0.15918 14.2998C0.15918 13.4339 0.465841 12.6979 1.08277 12.0918ZM1.91978 15.6635C2.29498 16.0387 2.74956 16.2264 3.27991 16.2264C3.81025 16.2264 4.21071 16.0532 4.54624 15.7032C4.88176 15.3533 5.05133 14.8879 5.05133 14.3034V12.3696H3.27991C2.74596 12.3696 2.29498 12.5609 1.91978 12.9361C1.54457 13.3149 1.35696 13.7695 1.35696 14.3034C1.35696 14.8374 1.54457 15.2883 1.91978 15.6635ZM1.68166 9.77204C1.68166 9.57361 1.75382 9.40044 1.89452 9.25973C2.03522 9.11903 2.20118 9.04688 2.39239 9.04688C2.58361 9.04688 2.764 9.11903 2.91191 9.25973C3.05623 9.40044 3.13199 9.57361 3.13199 9.77204C3.13199 9.97046 3.05983 10.1436 2.91191 10.2843C2.7676 10.425 2.59443 10.4972 2.39239 10.4972C2.19036 10.4972 2.03522 10.425 1.89452 10.2843C1.75382 10.1436 1.68166 9.97407 1.68166 9.77204ZM3.79221 9.77204C3.79221 9.57361 3.86076 9.40044 3.99786 9.25973C4.13495 9.11903 4.30452 9.04688 4.50294 9.04688C4.70137 9.04688 4.87455 9.11903 5.01525 9.25973C5.15595 9.40044 5.22811 9.57361 5.22811 9.77204C5.22811 9.97046 5.15595 10.1436 5.01525 10.2843C4.87455 10.425 4.70137 10.4972 4.50294 10.4972C4.30452 10.4972 4.13495 10.425 3.99786 10.2843C3.86076 10.1436 3.79221 9.97407 3.79221 9.77204Z" fill="#0D0D0F"/>
<path d="M7.33911 16.2237H8.0751C8.40702 16.2237 8.66317 16.1118 8.83634 15.8881C9.00952 15.6645 9.09971 15.3542 9.09971 14.9645V11.1836H10.2975V14.9645C10.2975 15.7041 10.0955 16.2994 9.69139 16.7504C9.28731 17.2014 8.74976 17.425 8.0751 17.425H7.33911V16.2273V16.2237ZM6.43356 18.6842C6.56705 18.5435 6.73301 18.4713 6.93144 18.4713C7.12986 18.4713 7.29221 18.5435 7.43652 18.6842C7.58084 18.8249 7.6566 18.998 7.6566 19.1965C7.6566 19.3949 7.58444 19.5572 7.43652 19.7016C7.29221 19.8459 7.12265 19.9216 6.93144 19.9216C6.74022 19.9216 6.56344 19.8495 6.42635 19.7088C6.28925 19.5681 6.2207 19.3949 6.2207 19.1965C6.2207 18.998 6.29286 18.8249 6.43356 18.6842ZM8.33125 19.1965C8.33125 18.998 8.40341 18.8249 8.54411 18.6842C8.68482 18.5435 8.85799 18.4713 9.05642 18.4713C9.25484 18.4713 9.41719 18.5435 9.56151 18.6842C9.70582 18.8249 9.78158 18.998 9.78158 19.1965C9.78158 19.3949 9.70942 19.5572 9.56151 19.7016C9.41359 19.8459 9.24763 19.9216 9.05642 19.9216C8.8652 19.9216 8.68482 19.8495 8.54411 19.7016C8.40341 19.5536 8.33125 19.3877 8.33125 19.1965Z" fill="#0D0D0F"/>
<path d="M10.7835 19.008C10.9566 19.0657 11.1298 19.0946 11.2958 19.0946C11.7612 19.0946 12.0931 18.9575 12.2879 18.6833C12.4827 18.4091 12.5801 17.9797 12.5801 17.3989V11.1827L13.7779 11.1719V17.4133C13.7779 18.3441 13.5687 19.0549 13.1466 19.5419C12.7245 20.029 12.122 20.2707 11.3318 20.2707C11.0144 20.2707 10.7185 20.2202 10.4443 20.1228L10.7799 19.0116L10.7835 19.008Z" fill="#0D0D0F"/>
<path d="M15.5898 7.68329H16.7768V14.9602C16.7768 15.8008 17.1051 16.2193 17.7617 16.2193H18.0756V17.4171H17.7617C17.0871 17.4171 16.5567 17.1934 16.1707 16.7424C15.7847 16.2915 15.5898 15.6998 15.5898 14.9566V7.67969V7.68329Z" fill="#0D0D0F"/>
<path d="M19.9338 16.2219C19.6019 15.9874 19.3349 15.688 19.1401 15.3163C18.9453 14.9447 18.8479 14.5443 18.8479 14.1114C18.8479 13.3032 19.1401 12.6141 19.7209 12.0405C20.3018 11.4668 21.0197 11.1782 21.8676 11.1782C22.7154 11.1782 23.4911 11.4849 24.09 12.1018C24.6888 12.7187 24.9883 13.48 24.9883 14.3855V16.2219H26.2113V17.4197H17.8232V16.2219H19.9338ZM20.5074 15.6591C20.8826 16.0343 21.3336 16.2219 21.8676 16.2219H23.7905V14.299C23.7905 13.7578 23.6029 13.2996 23.2277 12.9244C22.8525 12.5492 22.3979 12.3616 21.8676 12.3616C21.3372 12.3616 20.8826 12.5528 20.5074 12.928C20.1322 13.3068 19.9446 13.7614 19.9446 14.2953C19.9446 14.8293 20.1322 15.2803 20.5074 15.6555V15.6591ZM20.0096 9.66657C20.0096 9.46814 20.0817 9.29497 20.2224 9.15426C20.3631 9.01356 20.5363 8.94141 20.7347 8.94141C20.9331 8.94141 21.0955 9.01356 21.2398 9.15426C21.3841 9.29497 21.4599 9.46814 21.4599 9.66657C21.4599 9.865 21.3877 10.0382 21.2398 10.1789C21.0955 10.3196 20.9259 10.3917 20.7347 10.3917C20.5435 10.3917 20.3631 10.3196 20.2224 10.1789C20.0817 10.0382 20.0096 9.865 20.0096 9.66657ZM22.4701 9.15426C22.6108 9.01356 22.7839 8.94141 22.9824 8.94141C23.1808 8.94141 23.3431 9.01356 23.4875 9.15426C23.6318 9.29497 23.7075 9.46814 23.7075 9.66657C23.7075 9.865 23.6354 10.0382 23.4875 10.1789C23.3431 10.3196 23.1736 10.3917 22.9824 10.3917C22.7912 10.3917 22.6108 10.3196 22.4701 10.1789C22.3294 10.0382 22.2572 9.865 22.2572 9.66657C22.2572 9.46814 22.3294 9.29497 22.4701 9.15426Z" fill="#0D0D0F"/>
<path d="M25.9619 16.2234H28.8842L26.8999 13.265V11.1797H31.5937C33.2568 11.1797 34.0902 11.7714 34.0902 12.9511C34.0902 13.2109 34.0397 13.4742 33.9351 13.7448C33.8305 14.0154 33.6573 14.3112 33.412 14.6323C33.1666 14.9534 32.9682 15.2024 32.8131 15.3828C32.658 15.5631 32.4018 15.8445 32.0446 16.227H35.0283L35.0391 17.4248H25.9655V16.227L25.9619 16.2234ZM28.2961 13.2037L30.2949 16.2234H30.6701C30.7603 16.1223 30.9046 15.9708 31.0994 15.7616C31.2942 15.5523 31.4421 15.3972 31.5359 15.2889C31.6297 15.1807 31.7596 15.04 31.9184 14.8632C32.0771 14.6865 32.1962 14.5421 32.2755 14.4267C32.3549 14.3112 32.4379 14.1814 32.5245 14.0407C32.611 13.9 32.676 13.7701 32.7121 13.6546C32.7481 13.5392 32.7698 13.4273 32.7698 13.3191C32.7698 12.9439 32.6399 12.695 32.3838 12.5651C32.124 12.4352 31.7271 12.3703 31.186 12.3703H28.3034V13.2073L28.2961 13.2037Z" fill="#0D0D0F"/>
<path d="M34.7907 16.2235H35.1262C35.7829 16.2235 36.1112 15.805 36.1112 14.9644V7.6875H37.3089V14.9644C37.3089 15.704 37.1141 16.2993 36.7209 16.7502C36.3312 17.2012 35.7973 17.4249 35.1226 17.4249H34.7871V16.2271L34.7907 16.2235Z" fill="#0D0D0F"/>
<path d="M40.5805 17.421H39.3936V7.68359H40.5805V17.421Z" fill="#0D0D0F"/>
<path d="M46.5376 12.0918C47.1437 11.4857 47.876 11.1791 48.7347 11.1791H51.7039V14.96C51.7039 15.8006 52.0286 16.2191 52.678 16.2191H53.0388V17.4169H52.678C51.8193 17.4169 51.2565 17.0273 50.9787 16.2444C50.4628 17.0273 49.7124 17.4169 48.7311 17.4169C47.8652 17.4169 47.1292 17.1139 46.5231 16.5042C45.917 15.898 45.6104 15.1584 45.6104 14.2962C45.6104 13.4339 45.917 12.6943 46.5339 12.0882L46.5376 12.0918ZM47.3746 15.6635C47.7498 16.0387 48.2007 16.2264 48.7347 16.2264C49.2686 16.2264 49.6655 16.0532 50.001 15.7032C50.3365 15.3533 50.5061 14.8879 50.5061 14.3034V12.3696H48.7347C48.2007 12.3696 47.7498 12.5609 47.3746 12.9361C46.9993 13.3149 46.8117 13.7695 46.8117 14.3034C46.8117 14.8374 46.9993 15.2883 47.3746 15.6635ZM47.1364 9.77204C47.1364 9.57361 47.2086 9.40044 47.3493 9.25973C47.49 9.11903 47.656 9.04688 47.8472 9.04688C48.0384 9.04688 48.2188 9.11903 48.3667 9.25973C48.5146 9.40044 48.5868 9.57361 48.5868 9.77204C48.5868 9.97046 48.5146 10.1436 48.3667 10.2843C48.2224 10.425 48.0492 10.4972 47.8472 10.4972C47.6451 10.4972 47.49 10.425 47.3493 10.2843C47.2086 10.1436 47.1364 9.97407 47.1364 9.77204ZM49.247 9.77204C49.247 9.57361 49.3155 9.40044 49.4526 9.25973C49.5897 9.11903 49.7593 9.04688 49.9577 9.04688C50.1562 9.04688 50.3293 9.11903 50.47 9.25973C50.6107 9.40044 50.6829 9.57361 50.6829 9.77204C50.6829 9.97046 50.6107 10.1436 50.47 10.2843C50.3293 10.425 50.1562 10.4972 49.9577 10.4972C49.7593 10.4972 49.5897 10.425 49.4526 10.2843C49.3155 10.1436 49.247 9.97407 49.247 9.77204Z" fill="#0D0D0F"/>
<path d="M52.7888 17.4211V16.2234H54.0118V11.1797H55.1988V13.0629C56.2955 11.8074 57.4031 11.1797 58.5179 11.1797C59.4018 11.1797 60.1162 11.4827 60.6718 12.0925C61.2237 12.6986 61.5015 13.4851 61.5015 14.4519V14.9895C61.5015 15.8121 61.8118 16.227 62.436 16.227H62.7715V17.4248H62.436C61.6964 17.4248 61.1696 17.1109 60.863 16.4867C60.4805 17.1109 59.9105 17.4248 59.1529 17.4248H52.7852L52.7888 17.4211ZM55.1988 16.2234H59.1565C59.4884 16.2234 59.7626 16.1043 59.9791 15.8662C60.1955 15.6281 60.3038 15.2853 60.3038 14.838V14.4628C60.3038 13.8314 60.1342 13.3227 59.7915 12.9403C59.4487 12.5579 58.9833 12.3666 58.3916 12.3666C57.45 12.3666 56.3857 13.081 55.1952 14.5133V16.2234H55.1988Z" fill="#0D0D0F"/>
<path d="M62.5264 17.4219V16.2241H62.8871C63.5438 16.2241 63.8721 15.8056 63.8721 14.965V11.1841H65.059V14.965C65.059 15.8056 65.3873 16.2241 66.044 16.2241H66.4047V17.4219H66.044C65.3368 17.4219 64.8137 17.1405 64.471 16.5741C64.1138 17.1405 63.5834 17.4219 62.8871 17.4219H62.5264ZM63.7242 9.74456C63.7242 9.53531 63.7963 9.35853 63.9442 9.21422C64.0885 9.0699 64.2653 8.99414 64.4746 8.99414C64.6838 8.99414 64.8606 9.0663 65.0049 9.21422C65.1492 9.36213 65.225 9.53531 65.225 9.74456C65.225 9.95381 65.1528 10.127 65.0121 10.2677C64.8642 10.4156 64.6838 10.4914 64.4746 10.4914C64.2653 10.4914 64.0885 10.4192 63.9442 10.2713C63.7999 10.127 63.7242 9.9502 63.7242 9.74095V9.74456Z" fill="#0D0D0F"/>
<path d="M66.1602 16.2234H68.0326C67.7259 16.0141 67.4806 15.7435 67.2966 15.4044C67.1126 15.0689 67.0224 14.6973 67.0224 14.3004C67.0224 13.4346 67.3291 12.6986 67.9388 12.0925C68.5521 11.4863 69.2845 11.1797 70.1431 11.1797C71.0018 11.1797 71.7342 11.4827 72.3475 12.0925C72.9608 12.6986 73.2639 13.4382 73.2639 14.3004V15.2493C73.2639 15.5415 73.3432 15.776 73.502 15.9564C73.6607 16.1368 73.8808 16.2234 74.1622 16.2234H74.4977V17.4211H74.1622C73.7293 17.4211 73.3757 17.3129 73.1015 17.0964C72.8273 16.88 72.6433 16.5805 72.5531 16.1981C72.2789 16.5733 71.929 16.8692 71.5033 17.0892C71.0776 17.3093 70.6266 17.4211 70.1431 17.4211H66.1602V16.2234ZM68.783 15.6605C69.1582 16.0358 69.6092 16.2234 70.1431 16.2234C70.6771 16.2234 71.1281 16.0358 71.5033 15.6605C71.8785 15.2853 72.0661 14.8344 72.0661 14.3004C72.0661 13.7665 71.8785 13.3119 71.5033 12.9331C71.1281 12.5543 70.6735 12.3666 70.1431 12.3666C69.6128 12.3666 69.1582 12.5579 68.783 12.9331C68.4078 13.3119 68.2202 13.7665 68.2202 14.3004C68.2202 14.8344 68.4078 15.2853 68.783 15.6605Z" fill="#0D0D0F"/>
<path d="M74.2477 16.2235H74.5833C75.2399 16.2235 75.5682 15.805 75.5682 14.9644V7.6875H76.766V14.9644C76.766 15.704 76.5712 16.2993 76.1779 16.7502C75.7883 17.2012 75.2543 17.4249 74.5797 17.4249H74.2441V16.2271L74.2477 16.2235Z" fill="#0D0D0F"/>
<path d="M80.0424 17.421H78.8555V7.68359H80.0424V17.421Z" fill="#0D0D0F"/>
<path d="M103.39 30.0254H102.962C102.535 30.0254 102.188 30.3716 102.188 30.7987V31.2273C102.188 31.6544 102.535 32.0007 102.962 32.0007H103.39C103.818 32.0007 104.164 31.6544 104.164 31.2273V30.7987C104.164 30.3716 103.818 30.0254 103.39 30.0254Z" fill="#E0A700"/>
<path d="M105.754 30.0254H105.325C104.898 30.0254 104.552 30.3716 104.552 30.7987V31.2273C104.552 31.6544 104.898 32.0007 105.325 32.0007H105.754C106.181 32.0007 106.527 31.6544 106.527 31.2273V30.7987C106.527 30.3716 106.181 30.0254 105.754 30.0254Z" fill="#E0A700"/>
<path d="M105.754 27.7812H105.325C104.898 27.7812 104.552 28.1275 104.552 28.5546V28.9832C104.552 29.4103 104.898 29.7565 105.325 29.7565H105.754C106.181 29.7565 106.527 29.4103 106.527 28.9832V28.5546C106.527 28.1275 106.181 27.7812 105.754 27.7812Z" fill="#E0A700"/>
<path d="M103.39 27.7812H102.962C102.535 27.7812 102.188 28.1275 102.188 28.5546V28.9832C102.188 29.4103 102.535 29.7565 102.962 29.7565H103.39C103.818 29.7565 104.164 29.4103 104.164 28.9832V28.5546C104.164 28.1275 103.818 27.7812 103.39 27.7812Z" fill="#E0A700"/>
<path d="M107.252 0H101.389C101.204 0 101.034 0.111036 100.962 0.28246L87.7604 31.3258C87.6299 31.6317 87.8539 31.9706 88.187 31.9706H95.0732C95.1862 31.9706 95.2953 31.9297 95.379 31.8557L104.018 24.2663C104.192 24.1143 104.453 24.1124 104.628 24.2643L113.427 31.8596C113.511 31.9317 113.618 31.9726 113.729 31.9726H120.536C120.869 31.9726 121.093 31.6317 120.962 31.3258L107.679 0.280512C107.607 0.109088 107.437 0 107.252 0ZM100.286 19.032L103.927 9.98351C104.083 9.59391 104.634 9.59586 104.788 9.98546L108.361 19.0339C108.481 19.3378 108.257 19.667 107.93 19.667H100.719C100.389 19.667 100.165 19.3359 100.288 19.03L100.286 19.032Z" fill="#0D0D0F"/>
</g>
<defs>
<clipPath id="clip0_2120_5277">
<rect width="120.841" height="32" fill="white" transform="translate(0.15918)"/>
</clipPath>
</defs>
</svg>
