<svg width="378" height="101" viewBox="0 0 378 101" fill="none" xmlns="http://www.w3.org/2000/svg">
<g clip-path="url(#clip0_2017_6634)">
<path d="M48.9611 93.8848H47.6218C46.2871 93.8848 45.2051 94.9668 45.2051 96.3015V97.6408C45.2051 98.9755 46.2871 100.058 47.6218 100.058H48.9611C50.2958 100.058 51.3779 98.9755 51.3779 97.6408V96.3015C51.3779 94.9668 50.2958 93.8848 48.9611 93.8848Z" fill="#E0A700"/>
<path d="M56.3468 93.8848H55.0076C53.6728 93.8848 52.5908 94.9668 52.5908 96.3015V97.6408C52.5908 98.9755 53.6728 100.058 55.0076 100.058H56.3468C57.6816 100.058 58.7636 98.9755 58.7636 97.6408V96.3015C58.7636 94.9668 57.6816 93.8848 56.3468 93.8848Z" fill="#E0A700"/>
<path d="M56.3468 86.873H55.0076C53.6728 86.873 52.5908 87.9551 52.5908 89.2898V90.6291C52.5908 91.9638 53.6728 93.0458 55.0076 93.0458H56.3468C57.6816 93.0458 58.7636 91.9638 58.7636 90.6291V89.2898C58.7636 87.9551 57.6816 86.873 56.3468 86.873Z" fill="#E0A700"/>
<path d="M48.9611 86.873H47.6218C46.2871 86.873 45.2051 87.9551 45.2051 89.2898V90.6291C45.2051 91.9638 46.2871 93.0458 47.6218 93.0458H48.9611C50.2958 93.0458 51.3779 91.9638 51.3779 90.6291V89.2898C51.3779 87.9551 50.2958 86.873 48.9611 86.873Z" fill="#E0A700"/>
<path d="M61.0299 0.0566406H42.7064C42.1281 0.0566406 41.5985 0.403631 41.3732 0.939335L0.11792 97.9505C-0.289945 98.9063 0.410123 99.9655 1.45109 99.9655H22.9706C23.3237 99.9655 23.6646 99.8377 23.9263 99.6063L50.9246 75.8893C51.4664 75.4144 52.2821 75.4083 52.83 75.8832L80.3275 99.6185C80.5892 99.8438 80.924 99.9716 81.271 99.9716H102.541C103.582 99.9716 104.282 98.9063 103.874 97.9505L62.3631 0.933248C62.1379 0.397543 61.6083 0.0566406 61.0299 0.0566406ZM39.2609 59.532L50.6385 31.2553C51.1255 30.0378 52.8483 30.0439 53.3292 31.2614L64.4938 59.5381C64.8712 60.4877 64.1711 61.5165 63.1484 61.5165H40.6123C39.5835 61.5165 38.8834 60.4817 39.2669 59.5259L39.2609 59.532Z" fill="#0D0D0F"/>
<path d="M127.992 94.1836L136.448 73.6191H138.793L147.192 94.1836H143.551L136.967 77.5314H138.196L131.555 94.1836H127.992ZM132.164 90.215V87.2724H143.066V90.215H132.164Z" fill="#0D0D0F"/>
<path d="M149.707 94.1839V73.0332H152.943V94.1839H149.707Z" fill="#0D0D0F"/>
<path d="M156.518 94.1841V80.0798H159.753V94.1841H156.518ZM165.887 94.1841V85.7846C165.887 84.8489 165.593 84.116 165.007 83.5974C164.421 83.0788 163.699 82.8195 162.831 82.8195C162.245 82.8195 161.715 82.9322 161.264 83.169C160.802 83.4058 160.441 83.744 160.159 84.1837C159.889 84.6234 159.742 85.1533 159.742 85.7846L158.479 85.0743C158.479 83.992 158.716 83.0675 159.19 82.2783C159.663 81.4891 160.294 80.8803 161.095 80.4406C161.895 80.0009 162.797 79.7754 163.801 79.7754C164.804 79.7754 165.695 79.9896 166.507 80.418C167.318 80.8465 167.95 81.4553 168.412 82.2445C168.874 83.0337 169.122 83.9695 169.122 85.0631V94.1728H165.887V94.1841ZM175.256 94.1841V85.7846C175.256 84.8489 174.962 84.116 174.376 83.5974C173.79 83.0788 173.068 82.8195 172.2 82.8195C171.637 82.8195 171.118 82.9322 170.644 83.169C170.171 83.4058 169.799 83.744 169.528 84.1837C169.258 84.6234 169.111 85.1533 169.111 85.7846L167.285 85.0743C167.386 83.992 167.702 83.0675 168.22 82.2783C168.739 81.4891 169.427 80.8803 170.261 80.4406C171.095 80.0009 172.009 79.7754 173.012 79.7754C174.015 79.7754 174.951 79.9896 175.774 80.418C176.597 80.8465 177.251 81.4553 177.747 82.2445C178.243 83.0337 178.48 83.9695 178.48 85.0631V94.1728H175.244L175.256 94.1841Z" fill="#0D0D0F"/>
<path d="M187.725 94.4776C186.451 94.4776 185.301 94.1507 184.275 93.508C183.249 92.8654 182.437 91.986 181.839 90.8811C181.242 89.7762 180.938 88.536 180.938 87.1605C180.938 85.7851 181.231 84.5224 181.839 83.4175C182.437 82.3126 183.249 81.4332 184.275 80.768C185.301 80.1141 186.451 79.7871 187.725 79.7871C188.807 79.7871 189.754 80.0126 190.588 80.4748C191.423 80.9371 192.077 81.5685 192.573 82.3689C193.069 83.1694 193.306 84.0826 193.306 85.0973V89.1561C193.306 90.1708 193.069 91.084 192.584 91.8845C192.099 92.685 191.445 93.3164 190.6 93.7786C189.754 94.2409 188.796 94.4663 187.725 94.4663V94.4776ZM188.255 91.4223C189.45 91.4223 190.419 91.0164 191.152 90.2159C191.885 89.4154 192.257 88.3895 192.257 87.1267C192.257 86.2811 192.088 85.537 191.761 84.8944C191.434 84.2518 190.96 83.7444 190.363 83.3836C189.765 83.0228 189.066 82.8425 188.266 82.8425C187.465 82.8425 186.789 83.0228 186.191 83.3836C185.594 83.7444 185.12 84.2518 184.782 84.8944C184.444 85.537 184.263 86.2811 184.263 87.1267C184.263 87.9723 184.433 88.7164 184.782 89.359C185.12 90.0017 185.594 90.509 186.191 90.8698C186.789 91.2306 187.477 91.411 188.266 91.411L188.255 91.4223ZM192.043 94.1845V90.3963L192.606 86.9576L192.043 83.5527V80.0802H195.279V94.1845H192.043Z" fill="#0D0D0F"/>
<path d="M198.852 94.1841V80.0798H202.087V94.1841H198.852ZM208.514 94.1841V86.0439C208.514 85.1082 208.209 84.3302 207.612 83.7214C207.014 83.1126 206.248 82.8082 205.301 82.8082C204.669 82.8082 204.117 82.9435 203.632 83.2141C203.147 83.4847 202.764 83.868 202.482 84.3641C202.211 84.8489 202.065 85.4126 202.065 86.0439L200.802 85.3337C200.802 84.2513 201.039 83.3043 201.512 82.47C201.986 81.6357 202.628 80.9817 203.463 80.497C204.297 80.0122 205.233 79.7754 206.27 79.7754C207.307 79.7754 208.266 80.046 209.089 80.5871C209.912 81.1283 210.554 81.8161 211.028 82.6729C211.501 83.5298 211.738 84.4092 211.738 85.3337V94.1728H208.502L208.514 94.1841Z" fill="#0D0D0F"/>
<path d="M219.652 94.4776C218.874 94.4776 218.119 94.3762 217.386 94.1732C216.664 93.9703 215.999 93.6771 215.39 93.2938C214.782 92.9105 214.252 92.4482 213.801 91.8958L215.853 89.8439C216.338 90.4076 216.901 90.836 217.544 91.1179C218.175 91.3997 218.897 91.5463 219.697 91.5463C220.419 91.5463 220.971 91.4335 221.343 91.2193C221.715 91.0051 221.907 90.6894 221.907 90.2836C221.907 89.8777 221.727 89.5169 221.377 89.2801C221.028 89.0434 220.565 88.8404 220.013 88.6826C219.449 88.5135 218.863 88.3444 218.254 88.164C217.634 87.9836 217.048 87.7468 216.495 87.4424C215.943 87.138 215.481 86.7208 215.131 86.191C214.782 85.6611 214.601 84.9733 214.601 84.139C214.601 83.2371 214.815 82.4591 215.233 81.8165C215.65 81.1738 216.247 80.6665 217.025 80.317C217.803 79.9675 218.728 79.7871 219.799 79.7871C220.937 79.7871 221.941 79.99 222.809 80.3847C223.677 80.7793 224.41 81.3881 224.996 82.1885L222.944 84.2405C222.527 83.7331 222.065 83.3498 221.535 83.0905C221.005 82.8312 220.396 82.7072 219.709 82.7072C219.066 82.7072 218.559 82.8086 218.209 83.0003C217.86 83.192 217.679 83.4851 217.679 83.8572C217.679 84.2518 217.86 84.5562 218.209 84.7704C218.559 84.9846 219.021 85.1763 219.573 85.3341C220.126 85.4919 220.723 85.6611 221.332 85.8527C221.941 86.0444 222.538 86.2924 223.091 86.6194C223.655 86.9463 224.106 87.3748 224.455 87.9159C224.805 88.4571 224.985 89.1561 224.985 90.013C224.985 91.3884 224.5 92.4708 223.542 93.2713C222.584 94.0717 221.276 94.4776 219.63 94.4776H219.652Z" fill="#0D0D0F"/>
<path d="M233.578 94.4776C232.304 94.4776 231.154 94.1507 230.128 93.508C229.102 92.8654 228.291 91.986 227.693 90.8811C227.095 89.7762 226.791 88.536 226.791 87.1605C226.791 85.7851 227.084 84.5224 227.693 83.4175C228.291 82.3126 229.102 81.4332 230.128 80.768C231.154 80.1141 232.304 79.7871 233.578 79.7871C234.661 79.7871 235.608 80.0126 236.442 80.4748C237.276 80.9371 237.93 81.5685 238.426 82.3689C238.922 83.1694 239.159 84.0826 239.159 85.0973V89.1561C239.159 90.1708 238.922 91.084 238.437 91.8845C237.953 92.685 237.299 93.3164 236.453 93.7786C235.608 94.2409 234.649 94.4663 233.578 94.4663V94.4776ZM234.108 91.4223C235.303 91.4223 236.273 91.0164 237.006 90.2159C237.738 89.4154 238.11 88.3895 238.11 87.1267C238.11 86.2811 237.941 85.537 237.614 84.8944C237.287 84.2518 236.814 83.7444 236.216 83.3836C235.619 83.0228 234.92 82.8425 234.119 82.8425C233.319 82.8425 232.642 83.0228 232.045 83.3836C231.447 83.7444 230.974 84.2518 230.636 84.8944C230.297 85.537 230.117 86.2811 230.117 87.1267C230.117 87.9723 230.286 88.7164 230.636 89.359C230.974 90.0017 231.447 90.509 232.045 90.8698C232.642 91.2306 233.33 91.411 234.119 91.411L234.108 91.4223ZM237.896 94.1845V90.3963L238.46 86.9576L237.896 83.5527V80.0802H241.132V94.1845H237.896Z" fill="#0D0D0F"/>
<path d="M244.715 94.1839V73.0332H247.951V94.1839H244.715ZM254.377 94.1839V86.0438C254.377 85.1081 254.073 84.3301 253.475 83.7213C252.878 83.1125 252.111 82.8081 251.164 82.8081C250.532 82.8081 249.98 82.9434 249.495 83.214C249.01 83.4846 248.627 83.8679 248.345 84.364C248.075 84.8488 247.928 85.4125 247.928 86.0438L246.665 85.3336C246.665 84.2512 246.902 83.3042 247.376 82.4699C247.849 81.6356 248.492 80.9816 249.326 80.4968C250.16 80.012 251.096 79.7753 252.133 79.7753C253.171 79.7753 254.129 80.012 254.952 80.4856C255.775 80.9591 256.418 81.6017 256.891 82.436C257.365 83.2703 257.601 84.2287 257.601 85.3336V94.1727H254.366L254.377 94.1839Z" fill="#0D0D0F"/>
<path d="M265.685 94.1836L274.14 73.6191H276.486L284.885 94.1836H281.243L274.659 77.5314H275.888L269.247 94.1836H265.662H265.685ZM269.856 90.215V87.2724H280.759V90.215H269.856Z" fill="#0D0D0F"/>
<path d="M287.402 94.1839V73.0332H290.638V94.1839H287.402Z" fill="#0D0D0F"/>
<path d="M300.119 94.4776C298.845 94.4776 297.695 94.1507 296.669 93.508C295.643 92.8654 294.832 91.986 294.234 90.8811C293.636 89.7762 293.332 88.536 293.332 87.1605C293.332 85.7851 293.625 84.5224 294.234 83.4175C294.832 82.3126 295.643 81.4332 296.669 80.768C297.695 80.1141 298.845 79.7871 300.119 79.7871C301.202 79.7871 302.149 80.0126 302.983 80.4748C303.817 80.9371 304.471 81.5685 304.967 82.3689C305.463 83.1694 305.7 84.0826 305.7 85.0973V89.1561C305.7 90.1708 305.463 91.084 304.978 91.8845C304.494 92.685 303.84 93.3164 302.994 93.7786C302.149 94.2409 301.19 94.4663 300.119 94.4663V94.4776ZM300.649 91.4223C301.844 91.4223 302.814 91.0164 303.547 90.2159C304.279 89.4154 304.652 88.3895 304.652 87.1267C304.652 86.2811 304.482 85.537 304.155 84.8944C303.828 84.2518 303.355 83.7444 302.757 83.3836C302.16 83.0228 301.461 82.8425 300.66 82.8425C299.86 82.8425 299.183 83.0228 298.586 83.3836C297.988 83.7444 297.515 84.2518 297.177 84.8944C296.838 85.537 296.658 86.2811 296.658 87.1267C296.658 87.9723 296.827 88.7164 297.177 89.359C297.515 90.0017 297.988 90.509 298.586 90.8698C299.183 91.2306 299.871 91.411 300.66 91.411L300.649 91.4223ZM304.437 94.1845V90.3963L305.001 86.9576L304.437 83.5527V80.0802H307.673V94.1845H304.437Z" fill="#0D0D0F"/>
<path d="M317.164 94.4776C315.89 94.4776 314.74 94.1507 313.714 93.508C312.688 92.8654 311.876 91.986 311.279 90.8811C310.681 89.7762 310.377 88.536 310.377 87.1605C310.377 85.7851 310.67 84.5224 311.279 83.4175C311.876 82.3126 312.688 81.4332 313.714 80.768C314.74 80.1141 315.89 79.7871 317.164 79.7871C318.246 79.7871 319.194 80.0126 320.028 80.4748C320.862 80.9371 321.516 81.5685 322.012 82.3689C322.508 83.1694 322.745 84.0826 322.745 85.0973V89.1561C322.745 90.1708 322.508 91.084 322.023 91.8845C321.539 92.685 320.885 93.3164 320.039 93.7786C319.194 94.2409 318.235 94.4663 317.164 94.4663V94.4776ZM317.694 91.4223C318.889 91.4223 319.859 91.0164 320.592 90.2159C321.324 89.4154 321.696 88.3895 321.696 87.1267C321.696 86.2811 321.527 85.537 321.2 84.8944C320.873 84.2518 320.4 83.7444 319.802 83.3836C319.205 83.0228 318.506 82.8425 317.705 82.8425C316.905 82.8425 316.228 83.0228 315.631 83.3836C315.033 83.7444 314.56 84.2518 314.222 84.8944C313.883 85.537 313.703 86.2811 313.703 87.1267C313.703 87.9723 313.872 88.7164 314.222 89.359C314.56 90.0017 315.033 90.509 315.631 90.8698C316.228 91.2306 316.916 91.411 317.705 91.411L317.694 91.4223ZM321.482 100.058V90.712L322.046 87.3071L321.482 83.8684V80.0802H324.718V100.058H321.482Z" fill="#0D0D0F"/>
<path d="M334.201 94.4776C332.927 94.4776 331.777 94.1507 330.751 93.508C329.725 92.8654 328.914 91.986 328.316 90.8811C327.718 89.7762 327.414 88.536 327.414 87.1605C327.414 85.7851 327.707 84.5224 328.316 83.4175C328.914 82.3126 329.725 81.4332 330.751 80.768C331.777 80.1141 332.927 79.7871 334.201 79.7871C335.284 79.7871 336.231 80.0126 337.065 80.4748C337.899 80.9371 338.553 81.5685 339.049 82.3689C339.545 83.1694 339.782 84.0826 339.782 85.0973V89.1561C339.782 90.1708 339.545 91.084 339.061 91.8845C338.576 92.685 337.922 93.3164 337.076 93.7786C336.231 94.2409 335.272 94.4663 334.201 94.4663V94.4776ZM334.731 91.4223C335.926 91.4223 336.896 91.0164 337.629 90.2159C338.361 89.4154 338.734 88.3895 338.734 87.1267C338.734 86.2811 338.564 85.537 338.237 84.8944C337.911 84.2518 337.437 83.7444 336.839 83.3836C336.242 83.0228 335.543 82.8425 334.742 82.8425C333.942 82.8425 333.265 83.0228 332.668 83.3836C332.07 83.7444 331.597 84.2518 331.259 84.8944C330.92 85.537 330.74 86.2811 330.74 87.1267C330.74 87.9723 330.909 88.7164 331.259 89.359C331.597 90.0017 332.07 90.509 332.668 90.8698C333.265 91.2306 333.953 91.411 334.742 91.411L334.731 91.4223ZM338.519 94.1845V90.3963L339.083 86.9576L338.519 83.5527V80.0802H341.755V94.1845H338.519Z" fill="#0D0D0F"/>
<path d="M345.34 94.1845V80.0802H348.576V94.1845H345.34ZM348.576 86.3375L347.459 85.7738C347.459 83.9925 347.854 82.5493 348.655 81.4444C349.444 80.3396 350.65 79.7871 352.251 79.7871C352.961 79.7871 353.593 79.9111 354.156 80.1704C354.72 80.4297 355.25 80.8356 355.746 81.3993L353.627 83.5753C353.367 83.3047 353.085 83.1018 352.77 82.989C352.454 82.8763 352.093 82.8086 351.687 82.8086C350.785 82.8086 350.041 83.0905 349.455 83.6655C348.869 84.2292 348.576 85.1199 348.576 86.3375Z" fill="#0D0D0F"/>
<path d="M358.937 77.4975C358.384 77.4975 357.933 77.3171 357.572 76.9338C357.212 76.5618 357.031 76.0995 357.031 75.5583C357.031 75.0172 357.212 74.5549 357.572 74.1829C357.933 73.8108 358.395 73.6191 358.937 73.6191C359.478 73.6191 359.963 73.8108 360.312 74.1829C360.662 74.5549 360.842 75.0172 360.842 75.5583C360.842 76.0995 360.662 76.5618 360.312 76.9338C359.963 77.3059 359.5 77.4975 358.937 77.4975ZM357.324 94.1836V80.0794H360.56V94.1836H357.324Z" fill="#0D0D0F"/>
<path d="M370.074 94.4776C368.8 94.4776 367.65 94.1507 366.624 93.508C365.598 92.8654 364.787 91.986 364.189 90.8811C363.592 89.7762 363.287 88.536 363.287 87.1605C363.287 85.7851 363.58 84.5224 364.189 83.4175C364.787 82.3126 365.598 81.4332 366.624 80.768C367.65 80.1141 368.8 79.7871 370.074 79.7871C371.157 79.7871 372.104 80.0126 372.938 80.4748C373.772 80.9371 374.426 81.5685 374.922 82.3689C375.418 83.1694 375.655 84.0826 375.655 85.0973V89.1561C375.655 90.1708 375.418 91.084 374.934 91.8845C374.449 92.685 373.795 93.3164 372.949 93.7786C372.104 94.2409 371.145 94.4663 370.074 94.4663V94.4776ZM370.604 91.4223C371.799 91.4223 372.769 91.0164 373.502 90.2159C374.235 89.4154 374.607 88.3895 374.607 87.1267C374.607 86.2811 374.437 85.537 374.111 84.8944C373.784 84.2518 373.31 83.7444 372.712 83.3836C372.115 83.0228 371.416 82.8425 370.615 82.8425C369.815 82.8425 369.139 83.0228 368.541 83.3836C367.943 83.7444 367.47 84.2518 367.132 84.8944C366.793 85.537 366.613 86.2811 366.613 87.1267C366.613 87.9723 366.782 88.7164 367.132 89.359C367.47 90.0017 367.943 90.509 368.541 90.8698C369.139 91.2306 369.826 91.411 370.615 91.411L370.604 91.4223ZM374.392 94.1845V90.3963L374.956 86.9576L374.392 83.5527V80.0802H377.628V94.1845H374.392Z" fill="#0D0D0F"/>
<path d="M130.878 37.8437C132.773 35.9496 135.061 34.9913 137.745 34.9913H147.035V46.8068C147.035 49.4338 148.049 50.7416 150.079 50.7416H151.206V54.4847H150.079C147.395 54.4847 145.637 53.2671 144.768 50.8205C143.156 53.2671 140.811 54.4847 137.745 54.4847C135.039 54.4847 132.739 53.5376 130.845 51.6323C128.939 49.7495 127.992 47.4495 127.992 44.7436C127.992 42.0378 128.951 39.7378 130.878 37.8437ZM133.494 49.0053C134.667 50.1779 136.087 50.7641 137.745 50.7641C139.402 50.7641 140.653 50.223 141.702 49.1294C142.75 48.0357 143.28 46.5813 143.28 44.7549V38.7118H137.745C136.076 38.7118 134.667 39.3094 133.494 40.4819C132.322 41.6657 131.735 43.0863 131.735 44.7549C131.735 46.4235 132.322 47.8328 133.494 49.0053ZM132.75 30.5943C132.75 29.9742 132.975 29.433 133.415 28.9933C133.855 28.5536 134.373 28.3281 134.971 28.3281C135.569 28.3281 136.132 28.5536 136.595 28.9933C137.046 29.433 137.282 29.9742 137.282 30.5943C137.282 31.2144 137.057 31.7555 136.595 32.1952C136.144 32.6349 135.602 32.8604 134.971 32.8604C134.34 32.8604 133.855 32.6349 133.415 32.1952C132.975 31.7555 132.75 31.2256 132.75 30.5943ZM139.345 30.5943C139.345 29.9742 139.56 29.433 139.988 28.9933C140.417 28.5536 140.946 28.3281 141.567 28.3281C142.187 28.3281 142.728 28.5536 143.168 28.9933C143.607 29.433 143.833 29.9742 143.833 30.5943C143.833 31.2144 143.607 31.7555 143.168 32.1952C142.728 32.6349 142.187 32.8604 141.567 32.8604C140.946 32.8604 140.417 32.6349 139.988 32.1952C139.56 31.7555 139.345 31.2256 139.345 30.5943Z" fill="#0D0D0F"/>
<path d="M150.429 50.7562H152.729C153.766 50.7562 154.566 50.4067 155.108 49.7076C155.649 49.0086 155.931 48.039 155.931 46.8214V35.0059H159.674V46.8214C159.674 49.1327 159.042 50.9929 157.78 52.4022C156.517 53.8115 154.837 54.5105 152.729 54.5105H150.429V50.7674V50.7562ZM147.599 58.4453C148.016 58.0056 148.535 57.7801 149.155 57.7801C149.775 57.7801 150.282 58.0056 150.733 58.4453C151.184 58.885 151.421 59.4262 151.421 60.0463C151.421 60.6663 151.195 61.1737 150.733 61.6247C150.282 62.0757 149.752 62.3124 149.155 62.3124C148.557 62.3124 148.005 62.0869 147.576 61.6472C147.148 61.2075 146.934 60.6663 146.934 60.0463C146.934 59.4262 147.159 58.885 147.599 58.4453ZM153.529 60.0463C153.529 59.4262 153.755 58.885 154.194 58.4453C154.634 58.0056 155.175 57.7801 155.795 57.7801C156.415 57.7801 156.923 58.0056 157.374 58.4453C157.825 58.885 158.061 59.4262 158.061 60.0463C158.061 60.6663 157.836 61.1737 157.374 61.6247C156.911 62.0757 156.393 62.3124 155.795 62.3124C155.198 62.3124 154.634 62.0869 154.194 61.6247C153.755 61.1624 153.529 60.6438 153.529 60.0463Z" fill="#0D0D0F"/>
<path d="M161.195 59.4587C161.736 59.6391 162.277 59.7292 162.796 59.7292C164.25 59.7292 165.287 59.3008 165.896 58.444C166.505 57.5871 166.809 56.2455 166.809 54.4303V35.0045L170.552 34.9707V54.4754C170.552 57.3842 169.898 59.6052 168.579 61.1273C167.26 62.6493 165.377 63.4047 162.908 63.4047C161.916 63.4047 160.992 63.2469 160.135 62.9424L161.183 59.4699L161.195 59.4587Z" fill="#0D0D0F"/>
<path d="M176.213 24.0679H179.922V46.8084C179.922 49.4353 180.948 50.7431 183 50.7431H183.981V54.4862H183C180.892 54.4862 179.234 53.7872 178.028 52.3779C176.822 50.9686 176.213 49.1196 176.213 46.7971V24.0566V24.0679Z" fill="#0D0D0F"/>
<path d="M189.789 50.7537C188.752 50.0208 187.917 49.085 187.309 47.9238C186.7 46.7625 186.395 45.5111 186.395 44.1581C186.395 41.6327 187.309 39.4793 189.124 37.6866C190.939 35.894 193.182 34.9921 195.832 34.9921C198.481 34.9921 200.905 35.9504 202.777 37.8783C204.649 39.8062 205.584 42.1851 205.584 45.015V50.7537H209.406V54.4968H183.193V50.7537H189.789ZM191.582 48.9948C192.754 50.1674 194.163 50.7537 195.832 50.7537H201.841V44.7444C201.841 43.0533 201.255 41.6214 200.082 40.4489C198.91 39.2763 197.489 38.6901 195.832 38.6901C194.175 38.6901 192.754 39.2876 191.582 40.4601C190.409 41.644 189.823 43.0645 189.823 44.7331C189.823 46.4017 190.409 47.811 191.582 48.9836V48.9948ZM190.026 30.2681C190.026 29.648 190.251 29.1068 190.691 28.6671C191.131 28.2274 191.672 28.002 192.292 28.002C192.912 28.002 193.419 28.2274 193.87 28.6671C194.321 29.1068 194.558 29.648 194.558 30.2681C194.558 30.8882 194.332 31.4294 193.87 31.8691C193.419 32.3088 192.889 32.5343 192.292 32.5343C191.694 32.5343 191.131 32.3088 190.691 31.8691C190.251 31.4294 190.026 30.8882 190.026 30.2681ZM197.715 28.6671C198.154 28.2274 198.696 28.002 199.316 28.002C199.936 28.002 200.443 28.2274 200.894 28.6671C201.345 29.1068 201.582 29.648 201.582 30.2681C201.582 30.8882 201.356 31.4294 200.894 31.8691C200.443 32.3088 199.913 32.5343 199.316 32.5343C198.718 32.5343 198.154 32.3088 197.715 31.8691C197.275 31.4294 197.05 30.8882 197.05 30.2681C197.05 29.648 197.275 29.1068 197.715 28.6671Z" fill="#0D0D0F"/>
<path d="M208.627 50.7538H217.759L211.558 41.5088V34.9922H226.226C231.424 34.9922 234.028 36.8412 234.028 40.5279C234.028 41.3397 233.87 42.1627 233.543 43.0083C233.216 43.8539 232.675 44.7784 231.909 45.7818C231.142 46.7852 230.522 47.5631 230.037 48.1269C229.552 48.6906 228.752 49.57 227.636 50.7651H236.959L236.993 54.5081H208.638V50.7651L208.627 50.7538ZM215.921 41.3171L222.167 50.7538H223.34C223.622 50.4381 224.073 49.9646 224.682 49.3107C225.29 48.6568 225.753 48.1719 226.046 47.8337C226.339 47.4955 226.745 47.0558 227.241 46.5033C227.737 45.9509 228.109 45.4999 228.357 45.1391C228.605 44.7784 228.864 44.3725 229.135 43.9328C229.406 43.4931 229.609 43.0872 229.721 42.7264C229.834 42.3656 229.902 42.0161 229.902 41.6779C229.902 40.5054 229.496 39.7274 228.695 39.3216C227.884 38.9157 226.643 38.7127 224.952 38.7127H215.944V41.3284L215.921 41.3171Z" fill="#0D0D0F"/>
<path d="M236.216 50.7533H237.265C239.317 50.7533 240.343 49.4455 240.343 46.8186V24.0781H244.086V46.8186C244.086 49.1298 243.477 50.9901 242.248 52.3994C241.031 53.8087 239.362 54.5077 237.254 54.5077H236.205V50.7646L236.216 50.7533Z" fill="#0D0D0F"/>
<path d="M254.311 54.4979H250.602V24.0684H254.311V54.4979Z" fill="#0D0D0F"/>
<path d="M272.925 37.8437C274.819 35.9496 277.108 34.9913 279.791 34.9913H289.07V46.8068C289.07 49.4338 290.084 50.7416 292.114 50.7416H293.241V54.4847H292.114C289.431 54.4847 287.672 53.2671 286.804 50.8205C285.191 53.2671 282.846 54.4847 279.78 54.4847C277.074 54.4847 274.774 53.5376 272.88 51.6323C270.986 49.7382 270.027 47.4269 270.027 44.7323C270.027 42.0378 270.986 39.7265 272.914 37.8324L272.925 37.8437ZM275.541 49.0053C276.713 50.1779 278.122 50.7641 279.791 50.7641C281.46 50.7641 282.7 50.223 283.748 49.1294C284.797 48.0357 285.327 46.5813 285.327 44.7549V38.7118H279.791C278.122 38.7118 276.713 39.3094 275.541 40.4819C274.368 41.6657 273.782 43.0863 273.782 44.7549C273.782 46.4235 274.368 47.8328 275.541 49.0053ZM274.796 30.5943C274.796 29.9742 275.022 29.433 275.462 28.9933C275.901 28.5536 276.42 28.3281 277.017 28.3281C277.615 28.3281 278.179 28.5536 278.641 28.9933C279.103 29.433 279.329 29.9742 279.329 30.5943C279.329 31.2144 279.103 31.7555 278.641 32.1952C278.19 32.6349 277.649 32.8604 277.017 32.8604C276.386 32.8604 275.901 32.6349 275.462 32.1952C275.022 31.7555 274.796 31.2256 274.796 30.5943ZM281.392 30.5943C281.392 29.9742 281.606 29.433 282.035 28.9933C282.463 28.5536 282.993 28.3281 283.613 28.3281C284.233 28.3281 284.774 28.5536 285.214 28.9933C285.654 29.433 285.879 29.9742 285.879 30.5943C285.879 31.2144 285.654 31.7555 285.214 32.1952C284.774 32.6349 284.233 32.8604 283.613 32.8604C282.993 32.8604 282.463 32.6349 282.035 32.1952C281.606 31.7555 281.392 31.2256 281.392 30.5943Z" fill="#0D0D0F"/>
<path d="M292.462 54.4969V50.7538H296.284V34.9922H299.994V40.8774C303.421 36.9539 306.882 34.9922 310.366 34.9922C313.128 34.9922 315.361 35.9392 317.097 37.8446C318.822 39.7387 319.69 42.1965 319.69 45.2181V46.8979C319.69 49.4685 320.66 50.7651 322.61 50.7651H323.659V54.5081H322.61C320.299 54.5081 318.653 53.5273 317.695 51.5768C316.499 53.5273 314.718 54.5081 312.35 54.5081H292.451L292.462 54.4969ZM299.994 50.7538H312.362C313.399 50.7538 314.256 50.3817 314.932 49.6376C315.609 48.8935 315.947 47.8224 315.947 46.4244V45.2519C315.947 43.2789 315.417 41.6892 314.346 40.4941C313.275 39.299 311.821 38.7015 309.972 38.7015C307.029 38.7015 303.703 40.9338 299.982 45.4097V50.7538H299.994Z" fill="#0D0D0F"/>
<path d="M322.891 54.4991V50.756H324.018C326.07 50.756 327.096 49.4481 327.096 46.8212V35.0057H330.805V46.8212C330.805 49.4481 331.831 50.756 333.883 50.756H335.011V54.4991H333.883C331.673 54.4991 330.039 53.6197 328.968 51.8496C327.851 53.6197 326.194 54.4991 324.018 54.4991H322.891ZM326.634 30.5072C326.634 29.8533 326.859 29.3008 327.321 28.8498C327.772 28.3989 328.325 28.1621 328.979 28.1621C329.633 28.1621 330.185 28.3876 330.636 28.8498C331.087 29.3121 331.324 29.8533 331.324 30.5072C331.324 31.1611 331.098 31.7023 330.659 32.142C330.196 32.6042 329.633 32.841 328.979 32.841C328.325 32.841 327.772 32.6155 327.321 32.1533C326.87 31.7023 326.634 31.1498 326.634 30.4959V30.5072Z" fill="#0D0D0F"/>
<path d="M334.246 50.7538H340.098C339.139 50.0999 338.373 49.2543 337.798 48.1945C337.223 47.146 336.941 45.9847 336.941 44.7445C336.941 42.0387 337.899 39.7387 339.804 37.8446C341.721 35.9505 344.01 34.9922 346.693 34.9922C349.376 34.9922 351.665 35.9392 353.582 37.8446C355.498 39.7387 356.445 42.05 356.445 44.7445V47.7097C356.445 48.6229 356.693 49.3558 357.189 49.9195C357.686 50.4832 358.373 50.7538 359.253 50.7538H360.301V54.4969H359.253C357.9 54.4969 356.795 54.1586 355.938 53.4822C355.081 52.8057 354.506 51.8699 354.224 50.6749C353.367 51.8474 352.274 52.7719 350.943 53.4596C349.613 54.1474 348.204 54.4969 346.693 54.4969H334.246V50.7538ZM342.443 48.995C343.615 50.1675 345.024 50.7538 346.693 50.7538C348.362 50.7538 349.771 50.1675 350.943 48.995C352.116 47.8224 352.702 46.4131 352.702 44.7445C352.702 43.0759 352.116 41.6553 350.943 40.4715C349.771 39.2877 348.35 38.7015 346.693 38.7015C345.036 38.7015 343.615 39.299 342.443 40.4715C341.27 41.6553 340.684 43.0759 340.684 44.7445C340.684 46.4131 341.27 47.8224 342.443 48.995Z" fill="#0D0D0F"/>
<path d="M359.523 50.7533H360.571C362.623 50.7533 363.649 49.4455 363.649 46.8186V24.0781H367.393V46.8186C367.393 49.1298 366.784 50.9901 365.555 52.3994C364.337 53.8087 362.669 54.5077 360.56 54.5077H359.512V50.7646L359.523 50.7533Z" fill="#0D0D0F"/>
<path d="M377.631 54.4979H373.922V24.0684H377.631V54.4979Z" fill="#0D0D0F"/>
</g>
<defs>
<clipPath id="clip0_2017_6634">
<rect width="377.63" height="100.001" fill="white" transform="translate(0 0.0566406)"/>
</clipPath>
</defs>
</svg>
