<svg width="378" height="100" viewBox="0 0 378 100" fill="none" xmlns="http://www.w3.org/2000/svg">
<g clip-path="url(#clip0_3319_8759)">
<path d="M48.9611 93.8281H47.6218C46.2871 93.8281 45.2051 94.9101 45.2051 96.2449V97.5841C45.2051 98.9189 46.2871 100.001 47.6218 100.001H48.9611C50.2958 100.001 51.3779 98.9189 51.3779 97.5841V96.2449C51.3779 94.9101 50.2958 93.8281 48.9611 93.8281Z" fill="#E0A700"/>
<path d="M56.3459 93.8281H55.0066C53.6719 93.8281 52.5898 94.9101 52.5898 96.2449V97.5841C52.5898 98.9189 53.6719 100.001 55.0066 100.001H56.3459C57.6806 100.001 58.7626 98.9189 58.7626 97.5841V96.2449C58.7626 94.9101 57.6806 93.8281 56.3459 93.8281Z" fill="#E0A700"/>
<path d="M56.3459 86.8164H55.0066C53.6719 86.8164 52.5898 87.8984 52.5898 89.2332V90.5724C52.5898 91.9072 53.6719 92.9892 55.0066 92.9892H56.3459C57.6806 92.9892 58.7626 91.9072 58.7626 90.5724V89.2332C58.7626 87.8984 57.6806 86.8164 56.3459 86.8164Z" fill="#E0A700"/>
<path d="M48.9611 86.8164H47.6218C46.2871 86.8164 45.2051 87.8984 45.2051 89.2332V90.5724C45.2051 91.9072 46.2871 92.9892 47.6218 92.9892H48.9611C50.2958 92.9892 51.3779 91.9072 51.3779 90.5724V89.2332C51.3779 87.8984 50.2958 86.8164 48.9611 86.8164Z" fill="#E0A700"/>
<path d="M61.0299 0H42.7064C42.1281 0 41.5985 0.34699 41.3732 0.882695L0.11792 97.8939C-0.289945 98.8496 0.410123 99.9089 1.45109 99.9089H22.9706C23.3237 99.9089 23.6646 99.781 23.9263 99.5497L50.9246 75.8326C51.4664 75.3578 52.2821 75.3517 52.83 75.8265L80.3275 99.5619C80.5892 99.7871 80.924 99.915 81.271 99.915H102.541C103.582 99.915 104.282 98.8496 103.874 97.8939L62.3631 0.876607C62.1379 0.340903 61.6083 0 61.0299 0ZM39.2609 59.4754L50.6385 31.1987C51.1255 29.9812 52.8483 29.9873 53.3292 31.2048L64.4938 59.4814C64.8712 60.4311 64.1711 61.4599 63.1484 61.4599H40.6123C39.5835 61.4599 38.8834 60.425 39.2669 59.4693L39.2609 59.4754Z" fill="white"/>
<path d="M127.992 94.127L136.448 73.5625H138.793L147.192 94.127H143.551L136.967 77.4747H138.196L131.555 94.127H127.992ZM132.164 90.1584V87.2158H143.066V90.1584H132.164Z" fill="white"/>
<path d="M149.707 94.1273V72.9766H152.943V94.1273H149.707Z" fill="white"/>
<path d="M156.518 94.1274V80.0232H159.753V94.1274H156.518ZM165.887 94.1274V85.728C165.887 84.7922 165.593 84.0594 165.007 83.5408C164.421 83.0221 163.699 82.7628 162.831 82.7628C162.245 82.7628 161.715 82.8756 161.264 83.1124C160.802 83.3491 160.441 83.6873 160.159 84.127C159.889 84.5667 159.742 85.0966 159.742 85.728L158.479 85.0177C158.479 83.9354 158.716 83.0109 159.19 82.2217C159.663 81.4325 160.294 80.8236 161.095 80.3839C161.895 79.9442 162.797 79.7188 163.801 79.7188C164.804 79.7188 165.695 79.933 166.507 80.3614C167.318 80.7898 167.95 81.3986 168.412 82.1878C168.874 82.977 169.122 83.9128 169.122 85.0064V94.1161H165.887V94.1274ZM175.256 94.1274V85.728C175.256 84.7922 174.962 84.0594 174.376 83.5408C173.79 83.0221 173.068 82.7628 172.2 82.7628C171.637 82.7628 171.118 82.8756 170.644 83.1124C170.171 83.3491 169.799 83.6873 169.528 84.127C169.258 84.5667 169.111 85.0966 169.111 85.728L167.285 85.0177C167.386 83.9354 167.702 83.0109 168.22 82.2217C168.739 81.4325 169.427 80.8236 170.261 80.3839C171.095 79.9442 172.009 79.7188 173.012 79.7188C174.015 79.7188 174.951 79.933 175.774 80.3614C176.597 80.7898 177.251 81.3986 177.747 82.1878C178.243 82.977 178.48 83.9128 178.48 85.0064V94.1161H175.244L175.256 94.1274Z" fill="white"/>
<path d="M187.725 94.421C186.451 94.421 185.301 94.094 184.275 93.4514C183.249 92.8088 182.437 91.9293 181.839 90.8245C181.242 89.7196 180.938 88.4794 180.938 87.1039C180.938 85.7284 181.231 84.4657 181.839 83.3608C182.437 82.2559 183.249 81.3765 184.275 80.7113C185.301 80.0574 186.451 79.7305 187.725 79.7305C188.807 79.7305 189.754 79.956 190.588 80.4182C191.423 80.8805 192.077 81.5118 192.573 82.3123C193.069 83.1128 193.306 84.026 193.306 85.0407V89.0995C193.306 90.1142 193.069 91.0274 192.584 91.8279C192.099 92.6284 191.445 93.2597 190.6 93.722C189.754 94.1842 188.796 94.4097 187.725 94.4097V94.421ZM188.255 91.3656C189.45 91.3656 190.419 90.9598 191.152 90.1593C191.885 89.3588 192.257 88.3328 192.257 87.0701C192.257 86.2245 192.088 85.4804 191.761 84.8378C191.434 84.1951 190.96 83.6878 190.363 83.327C189.765 82.9662 189.066 82.7858 188.266 82.7858C187.465 82.7858 186.789 82.9662 186.191 83.327C185.594 83.6878 185.12 84.1951 184.782 84.8378C184.444 85.4804 184.263 86.2245 184.263 87.0701C184.263 87.9157 184.433 88.6598 184.782 89.3024C185.12 89.945 185.594 90.4524 186.191 90.8132C186.789 91.174 187.477 91.3544 188.266 91.3544L188.255 91.3656ZM192.043 94.1278V90.3397L192.606 86.901L192.043 83.4961V80.0236H195.279V94.1278H192.043Z" fill="white"/>
<path d="M198.852 94.1274V80.0232H202.087V94.1274H198.852ZM208.514 94.1274V85.9873C208.514 85.0515 208.209 84.2736 207.612 83.6648C207.014 83.056 206.248 82.7516 205.301 82.7516C204.669 82.7516 204.117 82.8869 203.632 83.1574C203.147 83.428 202.764 83.8114 202.482 84.3074C202.211 84.7922 202.065 85.3559 202.065 85.9873L200.802 85.277C200.802 84.1947 201.039 83.2476 201.512 82.4133C201.986 81.579 202.628 80.9251 203.463 80.4403C204.297 79.9555 205.233 79.7188 206.27 79.7188C207.307 79.7188 208.266 79.9893 209.089 80.5305C209.912 81.0717 210.554 81.7594 211.028 82.6163C211.501 83.4731 211.738 84.3525 211.738 85.277V94.1161H208.502L208.514 94.1274Z" fill="white"/>
<path d="M219.652 94.421C218.874 94.421 218.119 94.3195 217.386 94.1166C216.664 93.9136 215.999 93.6205 215.39 93.2372C214.782 92.8538 214.252 92.3916 213.801 91.8391L215.853 89.7872C216.338 90.3509 216.901 90.7794 217.544 91.0612C218.175 91.3431 218.897 91.4896 219.697 91.4896C220.419 91.4896 220.971 91.3769 221.343 91.1627C221.715 90.9485 221.907 90.6328 221.907 90.2269C221.907 89.821 221.727 89.4603 221.377 89.2235C221.028 88.9867 220.565 88.7838 220.013 88.626C219.449 88.4568 218.863 88.2877 218.254 88.1073C217.634 87.9269 217.048 87.6902 216.495 87.3858C215.943 87.0814 215.481 86.6642 215.131 86.1343C214.782 85.6044 214.601 84.9167 214.601 84.0824C214.601 83.1804 214.815 82.4025 215.233 81.7598C215.65 81.1172 216.247 80.6099 217.025 80.2604C217.803 79.9109 218.728 79.7305 219.799 79.7305C220.937 79.7305 221.941 79.9334 222.809 80.328C223.677 80.7226 224.41 81.3314 224.996 82.1319L222.944 84.1838C222.527 83.6765 222.065 83.2932 221.535 83.0339C221.005 82.7745 220.396 82.6505 219.709 82.6505C219.066 82.6505 218.559 82.752 218.209 82.9437C217.86 83.1353 217.679 83.4285 217.679 83.8005C217.679 84.1951 217.86 84.4995 218.209 84.7137C218.559 84.928 219.021 85.1196 219.573 85.2775C220.126 85.4353 220.723 85.6044 221.332 85.7961C221.941 85.9877 222.538 86.2358 223.091 86.5627C223.655 86.8897 224.106 87.3181 224.455 87.8593C224.805 88.4005 224.985 89.0995 224.985 89.9563C224.985 91.3318 224.5 92.4141 223.542 93.2146C222.584 94.0151 221.276 94.421 219.63 94.421H219.652Z" fill="white"/>
<path d="M233.578 94.421C232.304 94.421 231.154 94.094 230.128 93.4514C229.102 92.8088 228.291 91.9293 227.693 90.8245C227.095 89.7196 226.791 88.4794 226.791 87.1039C226.791 85.7284 227.084 84.4657 227.693 83.3608C228.291 82.2559 229.102 81.3765 230.128 80.7113C231.154 80.0574 232.304 79.7305 233.578 79.7305C234.661 79.7305 235.608 79.956 236.442 80.4182C237.276 80.8805 237.93 81.5118 238.426 82.3123C238.922 83.1128 239.159 84.026 239.159 85.0407V89.0995C239.159 90.1142 238.922 91.0274 238.437 91.8279C237.953 92.6284 237.299 93.2597 236.453 93.722C235.608 94.1842 234.649 94.4097 233.578 94.4097V94.421ZM234.108 91.3656C235.303 91.3656 236.273 90.9598 237.006 90.1593C237.738 89.3588 238.11 88.3328 238.11 87.0701C238.11 86.2245 237.941 85.4804 237.614 84.8378C237.287 84.1951 236.814 83.6878 236.216 83.327C235.619 82.9662 234.92 82.7858 234.119 82.7858C233.319 82.7858 232.642 82.9662 232.045 83.327C231.447 83.6878 230.974 84.1951 230.636 84.8378C230.297 85.4804 230.117 86.2245 230.117 87.0701C230.117 87.9157 230.286 88.6598 230.636 89.3024C230.974 89.945 231.447 90.4524 232.045 90.8132C232.642 91.174 233.33 91.3544 234.119 91.3544L234.108 91.3656ZM237.896 94.1278V90.3397L238.46 86.901L237.896 83.4961V80.0236H241.132V94.1278H237.896Z" fill="white"/>
<path d="M244.715 94.1273V72.9766H247.951V94.1273H244.715ZM254.377 94.1273V85.9872C254.377 85.0514 254.073 84.2735 253.475 83.6647C252.878 83.0559 252.111 82.7515 251.164 82.7515C250.532 82.7515 249.98 82.8867 249.495 83.1573C249.01 83.4279 248.627 83.8112 248.345 84.3073C248.075 84.7921 247.928 85.3558 247.928 85.9872L246.665 85.2769C246.665 84.1946 246.902 83.2475 247.376 82.4132C247.849 81.5789 248.492 80.925 249.326 80.4402C250.16 79.9554 251.096 79.7186 252.133 79.7186C253.171 79.7186 254.129 79.9554 254.952 80.4289C255.775 80.9025 256.418 81.5451 256.891 82.3794C257.365 83.2137 257.601 84.172 257.601 85.2769V94.116H254.366L254.377 94.1273Z" fill="white"/>
<path d="M265.685 94.127L274.14 73.5625H276.486L284.885 94.127H281.243L274.659 77.4747H275.888L269.247 94.127H265.662H265.685ZM269.856 90.1584V87.2158H280.759V90.1584H269.856Z" fill="white"/>
<path d="M287.402 94.1273V72.9766H290.638V94.1273H287.402Z" fill="white"/>
<path d="M300.119 94.421C298.845 94.421 297.695 94.094 296.669 93.4514C295.643 92.8088 294.832 91.9293 294.234 90.8245C293.636 89.7196 293.332 88.4794 293.332 87.1039C293.332 85.7284 293.625 84.4657 294.234 83.3608C294.832 82.2559 295.643 81.3765 296.669 80.7113C297.695 80.0574 298.845 79.7305 300.119 79.7305C301.202 79.7305 302.149 79.956 302.983 80.4182C303.817 80.8805 304.471 81.5118 304.967 82.3123C305.463 83.1128 305.7 84.026 305.7 85.0407V89.0995C305.7 90.1142 305.463 91.0274 304.978 91.8279C304.494 92.6284 303.84 93.2597 302.994 93.722C302.149 94.1842 301.19 94.4097 300.119 94.4097V94.421ZM300.649 91.3656C301.844 91.3656 302.814 90.9598 303.547 90.1593C304.279 89.3588 304.652 88.3328 304.652 87.0701C304.652 86.2245 304.482 85.4804 304.155 84.8378C303.828 84.1951 303.355 83.6878 302.757 83.327C302.16 82.9662 301.461 82.7858 300.66 82.7858C299.86 82.7858 299.183 82.9662 298.586 83.327C297.988 83.6878 297.515 84.1951 297.177 84.8378C296.838 85.4804 296.658 86.2245 296.658 87.0701C296.658 87.9157 296.827 88.6598 297.177 89.3024C297.515 89.945 297.988 90.4524 298.586 90.8132C299.183 91.174 299.871 91.3544 300.66 91.3544L300.649 91.3656ZM304.437 94.1278V90.3397L305.001 86.901L304.437 83.4961V80.0236H307.673V94.1278H304.437Z" fill="white"/>
<path d="M317.164 94.421C315.89 94.421 314.74 94.094 313.714 93.4514C312.688 92.8088 311.876 91.9293 311.279 90.8245C310.681 89.7196 310.377 88.4794 310.377 87.1039C310.377 85.7284 310.67 84.4657 311.279 83.3608C311.876 82.2559 312.688 81.3765 313.714 80.7113C314.74 80.0574 315.89 79.7305 317.164 79.7305C318.246 79.7305 319.194 79.956 320.028 80.4182C320.862 80.8805 321.516 81.5118 322.012 82.3123C322.508 83.1128 322.745 84.026 322.745 85.0407V89.0995C322.745 90.1142 322.508 91.0274 322.023 91.8279C321.539 92.6284 320.885 93.2597 320.039 93.722C319.194 94.1842 318.235 94.4097 317.164 94.4097V94.421ZM317.694 91.3656C318.889 91.3656 319.859 90.9598 320.592 90.1593C321.324 89.3588 321.696 88.3328 321.696 87.0701C321.696 86.2245 321.527 85.4804 321.2 84.8378C320.873 84.1951 320.4 83.6878 319.802 83.327C319.205 82.9662 318.506 82.7858 317.705 82.7858C316.905 82.7858 316.228 82.9662 315.631 83.327C315.033 83.6878 314.56 84.1951 314.222 84.8378C313.883 85.4804 313.703 86.2245 313.703 87.0701C313.703 87.9157 313.872 88.6598 314.222 89.3024C314.56 89.945 315.033 90.4524 315.631 90.8132C316.228 91.174 316.916 91.3544 317.705 91.3544L317.694 91.3656ZM321.482 100.002V90.6553L322.046 87.2505L321.482 83.8118V80.0236H324.718V100.002H321.482Z" fill="white"/>
<path d="M334.201 94.421C332.927 94.421 331.777 94.094 330.751 93.4514C329.725 92.8088 328.914 91.9293 328.316 90.8245C327.718 89.7196 327.414 88.4794 327.414 87.1039C327.414 85.7284 327.707 84.4657 328.316 83.3608C328.914 82.2559 329.725 81.3765 330.751 80.7113C331.777 80.0574 332.927 79.7305 334.201 79.7305C335.284 79.7305 336.231 79.956 337.065 80.4182C337.899 80.8805 338.553 81.5118 339.049 82.3123C339.545 83.1128 339.782 84.026 339.782 85.0407V89.0995C339.782 90.1142 339.545 91.0274 339.061 91.8279C338.576 92.6284 337.922 93.2597 337.076 93.722C336.231 94.1842 335.272 94.4097 334.201 94.4097V94.421ZM334.731 91.3656C335.926 91.3656 336.896 90.9598 337.629 90.1593C338.361 89.3588 338.734 88.3328 338.734 87.0701C338.734 86.2245 338.564 85.4804 338.237 84.8378C337.911 84.1951 337.437 83.6878 336.839 83.327C336.242 82.9662 335.543 82.7858 334.742 82.7858C333.942 82.7858 333.265 82.9662 332.668 83.327C332.07 83.6878 331.597 84.1951 331.259 84.8378C330.92 85.4804 330.74 86.2245 330.74 87.0701C330.74 87.9157 330.909 88.6598 331.259 89.3024C331.597 89.945 332.07 90.4524 332.668 90.8132C333.265 91.174 333.953 91.3544 334.742 91.3544L334.731 91.3656ZM338.519 94.1278V90.3397L339.083 86.901L338.519 83.4961V80.0236H341.755V94.1278H338.519Z" fill="white"/>
<path d="M345.34 94.1278V80.0236H348.576V94.1278H345.34ZM348.576 86.2809L347.459 85.7172C347.459 83.9358 347.854 82.4927 348.655 81.3878C349.444 80.2829 350.65 79.7305 352.251 79.7305C352.961 79.7305 353.593 79.8545 354.156 80.1138C354.72 80.3731 355.25 80.779 355.746 81.3427L353.627 83.5187C353.367 83.2481 353.085 83.0451 352.77 82.9324C352.454 82.8196 352.093 82.752 351.687 82.752C350.785 82.752 350.041 83.0338 349.455 83.6088C348.869 84.1726 348.576 85.0632 348.576 86.2809Z" fill="white"/>
<path d="M358.937 77.4409C358.384 77.4409 357.933 77.2605 357.572 76.8772C357.212 76.5051 357.031 76.0429 357.031 75.5017C357.031 74.9605 357.212 74.4983 357.572 74.1262C357.933 73.7542 358.395 73.5625 358.937 73.5625C359.478 73.5625 359.963 73.7542 360.312 74.1262C360.662 74.4983 360.842 74.9605 360.842 75.5017C360.842 76.0429 360.662 76.5051 360.312 76.8772C359.963 77.2492 359.5 77.4409 358.937 77.4409ZM357.324 94.127V80.0227H360.56V94.127H357.324Z" fill="white"/>
<path d="M370.074 94.421C368.8 94.421 367.65 94.094 366.624 93.4514C365.598 92.8088 364.787 91.9293 364.189 90.8245C363.592 89.7196 363.287 88.4794 363.287 87.1039C363.287 85.7284 363.58 84.4657 364.189 83.3608C364.787 82.2559 365.598 81.3765 366.624 80.7113C367.65 80.0574 368.8 79.7305 370.074 79.7305C371.157 79.7305 372.104 79.956 372.938 80.4182C373.772 80.8805 374.426 81.5118 374.922 82.3123C375.418 83.1128 375.655 84.026 375.655 85.0407V89.0995C375.655 90.1142 375.418 91.0274 374.934 91.8279C374.449 92.6284 373.795 93.2597 372.949 93.722C372.104 94.1842 371.145 94.4097 370.074 94.4097V94.421ZM370.604 91.3656C371.799 91.3656 372.769 90.9598 373.502 90.1593C374.235 89.3588 374.607 88.3328 374.607 87.0701C374.607 86.2245 374.437 85.4804 374.111 84.8378C373.784 84.1951 373.31 83.6878 372.712 83.327C372.115 82.9662 371.416 82.7858 370.615 82.7858C369.815 82.7858 369.139 82.9662 368.541 83.327C367.943 83.6878 367.47 84.1951 367.132 84.8378C366.793 85.4804 366.613 86.2245 366.613 87.0701C366.613 87.9157 366.782 88.6598 367.132 89.3024C367.47 89.945 367.943 90.4524 368.541 90.8132C369.139 91.174 369.826 91.3544 370.615 91.3544L370.604 91.3656ZM374.392 94.1278V90.3397L374.956 86.901L374.392 83.4961V80.0236H377.628V94.1278H374.392Z" fill="white"/>
<path d="M130.878 37.787C132.773 35.893 135.061 34.9346 137.745 34.9346H147.035V46.7502C147.035 49.3771 148.049 50.6849 150.079 50.6849H151.206V54.428H150.079C147.395 54.428 145.637 53.2104 144.768 50.7639C143.156 53.2104 140.811 54.428 137.745 54.428C135.039 54.428 132.739 53.481 130.845 51.5756C128.939 49.6928 127.992 47.3928 127.992 44.687C127.992 41.9811 128.951 39.6811 130.878 37.787ZM133.494 48.9487C134.667 50.1212 136.087 50.7075 137.745 50.7075C139.402 50.7075 140.653 50.1663 141.702 49.0727C142.75 47.9791 143.28 46.5247 143.28 44.6983V38.6552H137.745C136.076 38.6552 134.667 39.2527 133.494 40.4253C132.322 41.6091 131.735 43.0296 131.735 44.6983C131.735 46.3669 132.322 47.7762 133.494 48.9487ZM132.75 30.5376C132.75 29.9175 132.975 29.3764 133.415 28.9367C133.855 28.497 134.373 28.2715 134.971 28.2715C135.569 28.2715 136.132 28.497 136.595 28.9367C137.046 29.3764 137.282 29.9175 137.282 30.5376C137.282 31.1577 137.057 31.6989 136.595 32.1386C136.144 32.5783 135.602 32.8038 134.971 32.8038C134.34 32.8038 133.855 32.5783 133.415 32.1386C132.975 31.6989 132.75 31.169 132.75 30.5376ZM139.345 30.5376C139.345 29.9175 139.56 29.3764 139.988 28.9367C140.417 28.497 140.946 28.2715 141.567 28.2715C142.187 28.2715 142.728 28.497 143.168 28.9367C143.607 29.3764 143.833 29.9175 143.833 30.5376C143.833 31.1577 143.607 31.6989 143.168 32.1386C142.728 32.5783 142.187 32.8038 141.567 32.8038C140.946 32.8038 140.417 32.5783 139.988 32.1386C139.56 31.6989 139.345 31.169 139.345 30.5376Z" fill="white"/>
<path d="M150.429 50.6995H152.729C153.766 50.6995 154.566 50.35 155.108 49.651C155.649 48.952 155.931 47.9824 155.931 46.7648V34.9492H159.674V46.7648C159.674 49.076 159.042 50.9363 157.78 52.3456C156.517 53.7549 154.837 54.4539 152.729 54.4539H150.429V50.7108V50.6995ZM147.599 58.3887C148.016 57.949 148.535 57.7235 149.155 57.7235C149.775 57.7235 150.282 57.949 150.733 58.3887C151.184 58.8284 151.421 59.3695 151.421 59.9896C151.421 60.6097 151.195 61.1171 150.733 61.568C150.282 62.019 149.752 62.2558 149.155 62.2558C148.557 62.2558 148.005 62.0303 147.576 61.5906C147.148 61.1509 146.934 60.6097 146.934 59.9896C146.934 59.3695 147.159 58.8284 147.599 58.3887ZM153.529 59.9896C153.529 59.3695 153.755 58.8284 154.194 58.3887C154.634 57.949 155.175 57.7235 155.795 57.7235C156.415 57.7235 156.923 57.949 157.374 58.3887C157.825 58.8284 158.061 59.3695 158.061 59.9896C158.061 60.6097 157.836 61.1171 157.374 61.568C156.911 62.019 156.393 62.2558 155.795 62.2558C155.198 62.2558 154.634 62.0303 154.194 61.568C153.755 61.1058 153.529 60.5872 153.529 59.9896Z" fill="white"/>
<path d="M161.195 59.402C161.736 59.5824 162.277 59.6726 162.796 59.6726C164.25 59.6726 165.287 59.2442 165.896 58.3873C166.505 57.5305 166.809 56.1888 166.809 54.3736V34.9479L170.552 34.9141V54.4187C170.552 57.3275 169.898 59.5486 168.579 61.0706C167.26 62.5927 165.377 63.3481 162.908 63.3481C161.916 63.3481 160.992 63.1902 160.135 62.8858L161.183 59.4133L161.195 59.402Z" fill="white"/>
<path d="M176.213 24.0113H179.922V46.7517C179.922 49.3786 180.948 50.6865 183 50.6865H183.981V54.4296H183C180.892 54.4296 179.234 53.7305 178.028 52.3212C176.822 50.9119 176.213 49.063 176.213 46.7404V24V24.0113Z" fill="white"/>
<path d="M189.789 50.697C188.752 49.9642 187.917 49.0284 187.309 47.8671C186.7 46.7059 186.395 45.4544 186.395 44.1015C186.395 41.576 187.309 39.4226 189.124 37.63C190.939 35.8374 193.182 34.9354 195.832 34.9354C198.481 34.9354 200.905 35.8937 202.777 37.8217C204.649 39.7496 205.584 42.1285 205.584 44.9584V50.697H209.406V54.4401H183.193V50.697H189.789ZM191.582 48.9382C192.754 50.1107 194.163 50.697 195.832 50.697H201.841V44.6878C201.841 42.9966 201.255 41.5648 200.082 40.3922C198.91 39.2197 197.489 38.6334 195.832 38.6334C194.175 38.6334 192.754 39.231 191.582 40.4035C190.409 41.5873 189.823 43.0079 189.823 44.6765C189.823 46.3451 190.409 47.7544 191.582 48.9269V48.9382ZM190.026 30.2115C190.026 29.5914 190.251 29.0502 190.691 28.6105C191.131 28.1708 191.672 27.9453 192.292 27.9453C192.912 27.9453 193.419 28.1708 193.87 28.6105C194.321 29.0502 194.558 29.5914 194.558 30.2115C194.558 30.8315 194.332 31.3727 193.87 31.8124C193.419 32.2521 192.889 32.4776 192.292 32.4776C191.694 32.4776 191.131 32.2521 190.691 31.8124C190.251 31.3727 190.026 30.8315 190.026 30.2115ZM197.715 28.6105C198.154 28.1708 198.696 27.9453 199.316 27.9453C199.936 27.9453 200.443 28.1708 200.894 28.6105C201.345 29.0502 201.582 29.5914 201.582 30.2115C201.582 30.8315 201.356 31.3727 200.894 31.8124C200.443 32.2521 199.913 32.4776 199.316 32.4776C198.718 32.4776 198.154 32.2521 197.715 31.8124C197.275 31.3727 197.05 30.8315 197.05 30.2115C197.05 29.5914 197.275 29.0502 197.715 28.6105Z" fill="white"/>
<path d="M208.627 50.6971H217.759L211.558 41.4521V34.9355H226.226C231.424 34.9355 234.028 36.7845 234.028 40.4713C234.028 41.283 233.87 42.1061 233.543 42.9516C233.216 43.7972 232.675 44.7217 231.909 45.7251C231.142 46.7286 230.522 47.5065 230.037 48.0702C229.552 48.6339 228.752 49.5133 227.636 50.7084H236.959L236.993 54.4515H208.638V50.7084L208.627 50.6971ZM215.921 41.2605L222.167 50.6971H223.34C223.622 50.3815 224.073 49.9079 224.682 49.254C225.29 48.6001 225.753 48.1153 226.046 47.7771C226.339 47.4388 226.745 46.9991 227.241 46.4467C227.737 45.8943 228.109 45.4433 228.357 45.0825C228.605 44.7217 228.864 44.3158 229.135 43.8761C229.406 43.4364 229.609 43.0306 229.721 42.6698C229.834 42.309 229.902 41.9595 229.902 41.6213C229.902 40.4487 229.496 39.6708 228.695 39.2649C227.884 38.859 226.643 38.6561 224.952 38.6561H215.944V41.2718L215.921 41.2605Z" fill="white"/>
<path d="M236.216 50.6967H237.265C239.317 50.6967 240.343 49.3888 240.343 46.7619V24.0215H244.086V46.7619C244.086 49.0732 243.477 50.9334 242.248 52.3427C241.031 53.752 239.362 54.451 237.254 54.451H236.205V50.7079L236.216 50.6967Z" fill="white"/>
<path d="M254.311 54.4413H250.602V24.0117H254.311V54.4413Z" fill="white"/>
<path d="M272.925 37.787C274.819 35.893 277.108 34.9346 279.791 34.9346H289.07V46.7502C289.07 49.3771 290.084 50.6849 292.114 50.6849H293.241V54.428H292.114C289.431 54.428 287.672 53.2104 286.804 50.7639C285.191 53.2104 282.846 54.428 279.78 54.428C277.074 54.428 274.774 53.481 272.88 51.5756C270.986 49.6815 270.027 47.3703 270.027 44.6757C270.027 41.9811 270.986 39.6699 272.914 37.7758L272.925 37.787ZM275.541 48.9487C276.713 50.1212 278.122 50.7075 279.791 50.7075C281.46 50.7075 282.7 50.1663 283.748 49.0727C284.797 47.9791 285.327 46.5247 285.327 44.6983V38.6552H279.791C278.122 38.6552 276.713 39.2527 275.541 40.4253C274.368 41.6091 273.782 43.0296 273.782 44.6983C273.782 46.3669 274.368 47.7762 275.541 48.9487ZM274.796 30.5376C274.796 29.9175 275.022 29.3764 275.462 28.9367C275.901 28.497 276.42 28.2715 277.017 28.2715C277.615 28.2715 278.179 28.497 278.641 28.9367C279.103 29.3764 279.329 29.9175 279.329 30.5376C279.329 31.1577 279.103 31.6989 278.641 32.1386C278.19 32.5783 277.649 32.8038 277.017 32.8038C276.386 32.8038 275.901 32.5783 275.462 32.1386C275.022 31.6989 274.796 31.169 274.796 30.5376ZM281.392 30.5376C281.392 29.9175 281.606 29.3764 282.035 28.9367C282.463 28.497 282.993 28.2715 283.613 28.2715C284.233 28.2715 284.774 28.497 285.214 28.9367C285.654 29.3764 285.879 29.9175 285.879 30.5376C285.879 31.1577 285.654 31.6989 285.214 32.1386C284.774 32.5783 284.233 32.8038 283.613 32.8038C282.993 32.8038 282.463 32.5783 282.035 32.1386C281.606 31.6989 281.392 31.169 281.392 30.5376Z" fill="white"/>
<path d="M292.462 54.4402V50.6971H296.284V34.9355H299.994V40.8208C303.421 36.8973 306.882 34.9355 310.366 34.9355C313.128 34.9355 315.361 35.8826 317.097 37.788C318.822 39.6821 319.69 42.1399 319.69 45.1614V46.8413C319.69 49.4119 320.66 50.7084 322.61 50.7084H323.659V54.4515H322.61C320.299 54.4515 318.653 53.4706 317.695 51.5202C316.499 53.4706 314.718 54.4515 312.35 54.4515H292.451L292.462 54.4402ZM299.994 50.6971H312.362C313.399 50.6971 314.256 50.3251 314.932 49.581C315.609 48.8369 315.947 47.7658 315.947 46.3678V45.1952C315.947 43.2222 315.417 41.6325 314.346 40.4375C313.275 39.2424 311.821 38.6448 309.972 38.6448C307.029 38.6448 303.703 40.8772 299.982 45.3531V50.6971H299.994Z" fill="white"/>
<path d="M322.891 54.4424V50.6993H324.018C326.07 50.6993 327.096 49.3915 327.096 46.7646V34.949H330.805V46.7646C330.805 49.3915 331.831 50.6993 333.883 50.6993H335.011V54.4424H333.883C331.673 54.4424 330.039 53.563 328.968 51.793C327.851 53.563 326.194 54.4424 324.018 54.4424H322.891ZM326.634 30.4505C326.634 29.7966 326.859 29.2442 327.321 28.7932C327.772 28.3422 328.325 28.1055 328.979 28.1055C329.633 28.1055 330.185 28.331 330.636 28.7932C331.087 29.2555 331.324 29.7966 331.324 30.4505C331.324 31.1045 331.098 31.6456 330.659 32.0853C330.196 32.5476 329.633 32.7843 328.979 32.7843C328.325 32.7843 327.772 32.5589 327.321 32.0966C326.87 31.6456 326.634 31.0932 326.634 30.4393V30.4505Z" fill="white"/>
<path d="M334.246 50.6971H340.098C339.139 50.0432 338.373 49.1976 337.798 48.1379C337.223 47.0893 336.941 45.9281 336.941 44.6879C336.941 41.982 337.899 39.6821 339.804 37.788C341.721 35.8939 344.01 34.9355 346.693 34.9355C349.376 34.9355 351.665 35.8826 353.582 37.788C355.498 39.6821 356.445 41.9933 356.445 44.6879V47.653C356.445 48.5663 356.693 49.2991 357.189 49.8628C357.686 50.4266 358.373 50.6971 359.253 50.6971H360.301V54.4402H359.253C357.9 54.4402 356.795 54.102 355.938 53.4255C355.081 52.7491 354.506 51.8133 354.224 50.6182C353.367 51.7908 352.274 52.7153 350.943 53.403C349.613 54.0907 348.204 54.4402 346.693 54.4402H334.246V50.6971ZM342.443 48.9383C343.615 50.1109 345.024 50.6971 346.693 50.6971C348.362 50.6971 349.771 50.1109 350.943 48.9383C352.116 47.7658 352.702 46.3565 352.702 44.6879C352.702 43.0193 352.116 41.5987 350.943 40.4149C349.771 39.2311 348.35 38.6448 346.693 38.6448C345.036 38.6448 343.615 39.2424 342.443 40.4149C341.27 41.5987 340.684 43.0193 340.684 44.6879C340.684 46.3565 341.27 47.7658 342.443 48.9383Z" fill="white"/>
<path d="M359.523 50.6967H360.571C362.623 50.6967 363.649 49.3888 363.649 46.7619V24.0215H367.393V46.7619C367.393 49.0732 366.784 50.9334 365.555 52.3427C364.337 53.752 362.669 54.451 360.56 54.451H359.512V50.7079L359.523 50.6967Z" fill="white"/>
<path d="M377.631 54.4413H373.922V24.0117H377.631V54.4413Z" fill="white"/>
</g>
<defs>
<clipPath id="clip0_3319_8759">
<rect width="377.63" height="100.001" fill="white"/>
</clipPath>
</defs>
</svg>
