<svg width="121" height="32" viewBox="0 0 121 32" fill="none" xmlns="http://www.w3.org/2000/svg">
<g clip-path="url(#clip0_722_2)">
<mask id="mask0_722_2" style="mask-type:luminance" maskUnits="userSpaceOnUse" x="0" y="0" width="122" height="32">
<path d="M121.001 0H0.160156V32H121.001V0Z" fill="white"/>
</mask>
<g mask="url(#mask0_722_2)">
<path d="M0.160156 30.1197L2.86599 23.5391H3.61641L6.30421 30.1197H5.13889L3.03195 24.791H3.4252L1.30022 30.1197H0.160156ZM1.49504 28.8498V27.9081H4.98376V28.8498H1.49504Z" fill="#F1F1F1"/>
<path d="M7.10742 30.1198V23.3516H8.14285V30.1198H7.10742Z" fill="#F1F1F1"/>
<path d="M9.28906 30.1186V25.6052H10.3245V30.1186H9.28906ZM12.2872 30.1186V27.4308C12.2872 27.1313 12.1934 26.8968 12.0058 26.7309C11.8182 26.5649 11.5873 26.4819 11.3095 26.4819C11.1219 26.4819 10.9523 26.518 10.808 26.5938C10.6601 26.6695 10.5446 26.7778 10.4544 26.9185C10.3678 27.0592 10.3209 27.2287 10.3209 27.4308L9.91681 27.2035C9.91681 26.8571 9.99258 26.5613 10.1442 26.3087C10.2957 26.0562 10.4977 25.8614 10.7539 25.7207C11.01 25.58 11.2986 25.5078 11.6197 25.5078C11.9408 25.5078 12.2258 25.5764 12.4856 25.7135C12.7454 25.8506 12.9474 26.0454 13.0953 26.2979C13.2432 26.5505 13.3226 26.8499 13.3226 27.1999V30.115H12.2872V30.1186ZM15.2852 30.1186V27.4308C15.2852 27.1313 15.1914 26.8968 15.0038 26.7309C14.8162 26.5649 14.5853 26.4819 14.3075 26.4819C14.1271 26.4819 13.9612 26.518 13.8097 26.5938C13.6581 26.6695 13.5391 26.7778 13.4525 26.9185C13.3659 27.0592 13.319 27.2287 13.319 27.4308L12.7345 27.2035C12.767 26.8571 12.868 26.5613 13.034 26.3087C13.1999 26.0562 13.42 25.8614 13.687 25.7207C13.954 25.58 14.2462 25.5078 14.5673 25.5078C14.8884 25.5078 15.1878 25.5764 15.4512 25.7135C15.7146 25.8506 15.9238 26.0454 16.0826 26.2979C16.2413 26.5505 16.3171 26.8499 16.3171 27.1999V30.115H15.2816L15.2852 30.1186Z" fill="#F1F1F1"/>
<path d="M19.2753 30.2166C18.8677 30.2166 18.4997 30.1119 18.1714 29.9063C17.8431 29.7006 17.5833 29.4192 17.3921 29.0657C17.2009 28.7121 17.1035 28.3153 17.1035 27.8751C17.1035 27.435 17.1973 27.0309 17.3921 26.6773C17.5833 26.3238 17.8431 26.0424 18.1714 25.8295C18.4997 25.6202 18.8677 25.5156 19.2753 25.5156C19.6217 25.5156 19.9247 25.5878 20.1917 25.7357C20.4587 25.8836 20.6679 26.0857 20.8267 26.3418C20.9854 26.598 21.0612 26.8902 21.0612 27.2149V28.5137C21.0612 28.8384 20.9854 29.1306 20.8303 29.3868C20.6752 29.6429 20.4659 29.845 20.1953 29.9929C19.9247 30.1408 19.6181 30.2129 19.2753 30.2129V30.2166ZM19.4449 29.2388C19.8273 29.2388 20.1376 29.109 20.3721 28.8528C20.6066 28.5967 20.7257 28.2684 20.7257 27.8643C20.7257 27.5937 20.6716 27.3556 20.5669 27.1499C20.4623 26.9443 20.3108 26.782 20.1196 26.6665C19.9284 26.5511 19.7047 26.4933 19.4485 26.4933C19.1924 26.4933 18.9759 26.5511 18.7847 26.6665C18.5935 26.782 18.4419 26.9443 18.3337 27.1499C18.2255 27.3556 18.1678 27.5937 18.1678 27.8643C18.1678 28.1349 18.2219 28.373 18.3337 28.5786C18.4419 28.7843 18.5935 28.9466 18.7847 29.0621C18.9759 29.1775 19.196 29.2352 19.4485 29.2352L19.4449 29.2388ZM20.6571 30.1228V28.9105L20.8375 27.8102L20.6571 26.7206V25.6094H21.6926V30.1228H20.6571Z" fill="#F1F1F1"/>
<path d="M22.8359 30.1186V25.6052H23.8713V30.1186H22.8359ZM25.9278 30.1186V27.5137C25.9278 27.2143 25.8303 26.9654 25.6391 26.7705C25.4479 26.5757 25.2026 26.4783 24.8995 26.4783C24.6975 26.4783 24.5207 26.5216 24.3656 26.6082C24.2104 26.6948 24.0878 26.8174 23.9976 26.9762C23.911 27.1313 23.8641 27.3117 23.8641 27.5137L23.46 27.2865C23.46 26.9401 23.5358 26.6371 23.6873 26.3701C23.8388 26.1031 24.0445 25.8939 24.3115 25.7387C24.5784 25.5836 24.8779 25.5078 25.2098 25.5078C25.5417 25.5078 25.8484 25.5944 26.1117 25.7676C26.3751 25.9408 26.5808 26.1608 26.7323 26.435C26.8838 26.7092 26.9596 26.9906 26.9596 27.2865V30.115H25.9241L25.9278 30.1186Z" fill="#F1F1F1"/>
<path d="M29.4915 30.2166C29.2426 30.2166 29.0008 30.1841 28.7663 30.1191C28.5354 30.0542 28.3226 29.9604 28.1278 29.8377C27.9329 29.7151 27.7634 29.5672 27.6191 29.3904L28.2757 28.7338C28.4308 28.9142 28.6112 29.0512 28.8168 29.1414C29.0189 29.2316 29.2498 29.2785 29.5059 29.2785C29.7368 29.2785 29.9136 29.2425 30.0327 29.1739C30.1517 29.1054 30.2131 29.0043 30.2131 28.8745C30.2131 28.7446 30.1553 28.6291 30.0435 28.5534C29.9317 28.4776 29.7837 28.4127 29.607 28.3622C29.4266 28.308 29.239 28.2539 29.0441 28.1962C28.8457 28.1385 28.6581 28.0627 28.4813 27.9653C28.3045 27.8679 28.1566 27.7344 28.0448 27.5648C27.9329 27.3953 27.8752 27.1752 27.8752 26.9082C27.8752 26.6196 27.9438 26.3707 28.0773 26.165C28.2107 25.9594 28.402 25.797 28.6509 25.6852C28.8998 25.5733 29.1957 25.5156 29.5384 25.5156C29.9028 25.5156 30.2239 25.5806 30.5017 25.7068C30.7795 25.8331 31.014 26.0279 31.2016 26.2841L30.545 26.9407C30.4115 26.7783 30.2636 26.6557 30.094 26.5727C29.9244 26.4897 29.7296 26.45 29.5095 26.45C29.3039 26.45 29.1415 26.4825 29.0297 26.5438C28.9179 26.6052 28.8601 26.699 28.8601 26.818C28.8601 26.9443 28.9179 27.0417 29.0297 27.1103C29.1415 27.1788 29.2895 27.2401 29.4662 27.2907C29.643 27.3412 29.8342 27.3953 30.0291 27.4566C30.2239 27.5179 30.4151 27.5973 30.5919 27.7019C30.7723 27.8066 30.9166 27.9437 31.0284 28.1168C31.1403 28.29 31.198 28.5137 31.198 28.7879C31.198 29.228 31.0428 29.5744 30.7362 29.8305C30.4295 30.0867 30.011 30.2166 29.4843 30.2166H29.4915Z" fill="#F1F1F1"/>
<path d="M33.9473 30.2166C33.5396 30.2166 33.1716 30.1119 32.8433 29.9063C32.515 29.7006 32.2552 29.4192 32.064 29.0657C31.8728 28.7121 31.7754 28.3153 31.7754 27.8751C31.7754 27.435 31.8692 27.0309 32.064 26.6773C32.2552 26.3238 32.515 26.0424 32.8433 25.8295C33.1716 25.6202 33.5396 25.5156 33.9473 25.5156C34.2936 25.5156 34.5967 25.5878 34.8637 25.7357C35.1306 25.8836 35.3399 26.0857 35.4986 26.3418C35.6574 26.598 35.7331 26.8902 35.7331 27.2149V28.5137C35.7331 28.8384 35.6574 29.1306 35.5022 29.3868C35.3471 29.6429 35.1379 29.845 34.8673 29.9929C34.5967 30.1408 34.29 30.2129 33.9473 30.2129V30.2166ZM34.1169 29.2388C34.4993 29.2388 34.8096 29.109 35.0441 28.8528C35.2786 28.5967 35.3976 28.2684 35.3976 27.8643C35.3976 27.5937 35.3435 27.3556 35.2389 27.1499C35.1343 26.9443 34.9827 26.782 34.7915 26.6665C34.6003 26.5511 34.3766 26.4933 34.1205 26.4933C33.8643 26.4933 33.6479 26.5511 33.4566 26.6665C33.2654 26.782 33.1139 26.9443 33.0057 27.1499C32.8974 27.3556 32.8397 27.5937 32.8397 27.8643C32.8397 28.1349 32.8938 28.373 33.0057 28.5786C33.1139 28.7843 33.2654 28.9466 33.4566 29.0621C33.6479 29.1775 33.8679 29.2352 34.1205 29.2352L34.1169 29.2388ZM35.3291 30.1228V28.9105L35.5095 27.8102L35.3291 26.7206V25.6094H36.3645V30.1228H35.3291Z" fill="#F1F1F1"/>
<path d="M37.5117 30.1198V23.3516H38.5471V30.1198H37.5117ZM40.6035 30.1198V27.515C40.6035 27.2155 40.5061 26.9666 40.3149 26.7718C40.1237 26.577 39.8784 26.4796 39.5753 26.4796C39.3733 26.4796 39.1965 26.5229 39.0414 26.6094C38.8862 26.696 38.7636 26.8187 38.6734 26.9774C38.5868 27.1326 38.5399 27.313 38.5399 27.515L38.1358 27.2877C38.1358 26.9414 38.2116 26.6383 38.3631 26.3713C38.5146 26.1043 38.7203 25.8951 38.9872 25.74C39.2542 25.5848 39.5537 25.5091 39.8856 25.5091C40.2175 25.5091 40.5242 25.5848 40.7875 25.7364C41.0509 25.8879 41.2565 26.0935 41.4081 26.3605C41.5596 26.6275 41.6354 26.9341 41.6354 27.2877V30.1162H40.5999L40.6035 30.1198Z" fill="#F1F1F1"/>
<path d="M44.222 30.1197L46.9278 23.5391H47.6782L50.366 30.1197H49.2007L47.0938 24.791H47.487L45.362 30.1197H44.2148H44.222ZM45.5569 28.8498V27.9081H49.0456V28.8498H45.5569Z" fill="#F1F1F1"/>
<path d="M51.1699 30.1198V23.3516H52.2054V30.1198H51.1699Z" fill="#F1F1F1"/>
<path d="M55.2403 30.2166C54.8326 30.2166 54.4646 30.1119 54.1363 29.9063C53.808 29.7006 53.5482 29.4192 53.357 29.0657C53.1658 28.7121 53.0684 28.3153 53.0684 27.8751C53.0684 27.435 53.1622 27.0309 53.357 26.6773C53.5482 26.3238 53.808 26.0424 54.1363 25.8295C54.4646 25.6202 54.8326 25.5156 55.2403 25.5156C55.5866 25.5156 55.8897 25.5878 56.1566 25.7357C56.4236 25.8836 56.6329 26.0857 56.7916 26.3418C56.9504 26.598 57.0261 26.8902 57.0261 27.2149V28.5137C57.0261 28.8384 56.9504 29.1306 56.7952 29.3868C56.6401 29.6429 56.4308 29.845 56.1603 29.9929C55.8897 30.1408 55.583 30.2129 55.2403 30.2129V30.2166ZM55.4098 29.2388C55.7923 29.2388 56.1025 29.109 56.337 28.8528C56.5715 28.5967 56.6906 28.2684 56.6906 27.8643C56.6906 27.5937 56.6365 27.3556 56.5319 27.1499C56.4272 26.9443 56.2757 26.782 56.0845 26.6665C55.8933 26.5511 55.6696 26.4933 55.4134 26.4933C55.1573 26.4933 54.9408 26.5511 54.7496 26.6665C54.5584 26.782 54.4069 26.9443 54.2986 27.1499C54.1904 27.3556 54.1327 27.5937 54.1327 27.8643C54.1327 28.1349 54.1868 28.373 54.2986 28.5786C54.4069 28.7843 54.5584 28.9466 54.7496 29.0621C54.9408 29.1775 55.1609 29.2352 55.4134 29.2352L55.4098 29.2388ZM56.622 30.1228V28.9105L56.8024 27.8102L56.622 26.7206V25.6094H57.6575V30.1228H56.622Z" fill="#F1F1F1"/>
<path d="M60.6953 30.2166C60.2876 30.2166 59.9196 30.1119 59.5913 29.9063C59.263 29.7006 59.0032 29.4192 58.812 29.0657C58.6208 28.7121 58.5234 28.3153 58.5234 27.8751C58.5234 27.435 58.6172 27.0309 58.812 26.6773C59.0032 26.3238 59.263 26.0424 59.5913 25.8295C59.9196 25.6202 60.2876 25.5156 60.6953 25.5156C61.0416 25.5156 61.3447 25.5878 61.6116 25.7357C61.8786 25.8836 62.0879 26.0857 62.2466 26.3418C62.4054 26.598 62.4811 26.8902 62.4811 27.2149V28.5137C62.4811 28.8384 62.4054 29.1306 62.2502 29.3868C62.0951 29.6429 61.8858 29.845 61.6152 29.9929C61.3447 30.1408 61.038 30.2129 60.6953 30.2129V30.2166ZM60.8648 29.2388C61.2473 29.2388 61.5575 29.109 61.792 28.8528C62.0265 28.5967 62.1456 28.2684 62.1456 27.8643C62.1456 27.5937 62.0915 27.3556 61.9868 27.1499C61.8822 26.9443 61.7307 26.782 61.5395 26.6665C61.3483 26.5511 61.1246 26.4933 60.8684 26.4933C60.6123 26.4933 60.3958 26.5511 60.2046 26.6665C60.0134 26.782 59.8619 26.9443 59.7536 27.1499C59.6454 27.3556 59.5877 27.5937 59.5877 27.8643C59.5877 28.1349 59.6418 28.373 59.7536 28.5786C59.8619 28.7843 60.0134 28.9466 60.2046 29.0621C60.3958 29.1775 60.6159 29.2352 60.8684 29.2352L60.8648 29.2388ZM62.077 32.0024V29.0116L62.2574 27.922L62.077 26.8216V25.6094H63.1125V32.0024H62.077Z" fill="#F1F1F1"/>
<path d="M66.1465 30.2166C65.7388 30.2166 65.3708 30.1119 65.0425 29.9063C64.7142 29.7006 64.4545 29.4192 64.2633 29.0657C64.072 28.7121 63.9746 28.3153 63.9746 27.8751C63.9746 27.435 64.0684 27.0309 64.2633 26.6773C64.4545 26.3238 64.7142 26.0424 65.0425 25.8295C65.3708 25.6202 65.7388 25.5156 66.1465 25.5156C66.4929 25.5156 66.7959 25.5878 67.0629 25.7357C67.3299 25.8836 67.5391 26.0857 67.6979 26.3418C67.8566 26.598 67.9324 26.8902 67.9324 27.2149V28.5137C67.9324 28.8384 67.8566 29.1306 67.7015 29.3868C67.5463 29.6429 67.3371 29.845 67.0665 29.9929C66.7959 30.1408 66.4893 30.2129 66.1465 30.2129V30.2166ZM66.3161 29.2388C66.6985 29.2388 67.0088 29.109 67.2433 28.8528C67.4778 28.5967 67.5968 28.2684 67.5968 27.8643C67.5968 27.5937 67.5427 27.3556 67.4381 27.1499C67.3335 26.9443 67.1819 26.782 66.9907 26.6665C66.7995 26.5511 66.5758 26.4933 66.3197 26.4933C66.0635 26.4933 65.8471 26.5511 65.6559 26.6665C65.4646 26.782 65.3131 26.9443 65.2049 27.1499C65.0966 27.3556 65.0389 27.5937 65.0389 27.8643C65.0389 28.1349 65.093 28.373 65.2049 28.5786C65.3131 28.7843 65.4646 28.9466 65.6559 29.0621C65.8471 29.1775 66.0671 29.2352 66.3197 29.2352L66.3161 29.2388ZM67.5283 30.1228V28.9105L67.7087 27.8102L67.5283 26.7206V25.6094H68.5637V30.1228H67.5283Z" fill="#F1F1F1"/>
<path d="M69.7109 30.1228V25.6094H70.7463V30.1228H69.7109ZM70.7463 27.6117L70.3891 27.4314C70.3891 26.8613 70.5154 26.3995 70.7715 26.046C71.0241 25.6924 71.4101 25.5156 71.9224 25.5156C72.1497 25.5156 72.3518 25.5553 72.5321 25.6383C72.7125 25.7213 72.8821 25.8511 73.0408 26.0315L72.3626 26.7278C72.2796 26.6413 72.1894 26.5763 72.0884 26.5402C71.9874 26.5042 71.8719 26.4825 71.742 26.4825C71.4534 26.4825 71.2153 26.5727 71.0277 26.7567C70.8401 26.9371 70.7463 27.2221 70.7463 27.6117Z" fill="#F1F1F1"/>
<path d="M74.0628 24.7802C73.886 24.7802 73.7417 24.7225 73.6262 24.5998C73.5108 24.4807 73.4531 24.3328 73.4531 24.1597C73.4531 23.9865 73.5108 23.8386 73.6262 23.7195C73.7417 23.6004 73.8896 23.5391 74.0628 23.5391C74.236 23.5391 74.3911 23.6004 74.5029 23.7195C74.6148 23.8386 74.6725 23.9865 74.6725 24.1597C74.6725 24.3328 74.6148 24.4807 74.5029 24.5998C74.3911 24.7189 74.2432 24.7802 74.0628 24.7802ZM73.5469 30.1197V25.6064H74.5823V30.1197H73.5469Z" fill="#F1F1F1"/>
<path d="M77.625 30.2166C77.2173 30.2166 76.8493 30.1119 76.521 29.9063C76.1927 29.7006 75.933 29.4192 75.7417 29.0657C75.5505 28.7121 75.4531 28.3153 75.4531 27.8751C75.4531 27.435 75.5469 27.0309 75.7417 26.6773C75.933 26.3238 76.1927 26.0424 76.521 25.8295C76.8493 25.6202 77.2173 25.5156 77.625 25.5156C77.9714 25.5156 78.2744 25.5878 78.5414 25.7357C78.8084 25.8836 79.0176 26.0857 79.1764 26.3418C79.3351 26.598 79.4109 26.8902 79.4109 27.2149V28.5137C79.4109 28.8384 79.3351 29.1306 79.18 29.3868C79.0248 29.6429 78.8156 29.845 78.545 29.9929C78.2744 30.1408 77.9677 30.2129 77.625 30.2129V30.2166ZM77.7946 29.2388C78.177 29.2388 78.4873 29.109 78.7218 28.8528C78.9563 28.5967 79.0753 28.2684 79.0753 27.8643C79.0753 27.5937 79.0212 27.3556 78.9166 27.1499C78.812 26.9443 78.6604 26.782 78.4692 26.6665C78.278 26.5511 78.0543 26.4933 77.7982 26.4933C77.542 26.4933 77.3256 26.5511 77.1344 26.6665C76.9431 26.782 76.7916 26.9443 76.6834 27.1499C76.5751 27.3556 76.5174 27.5937 76.5174 27.8643C76.5174 28.1349 76.5715 28.373 76.6834 28.5786C76.7916 28.7843 76.9431 28.9466 77.1344 29.0621C77.3256 29.1775 77.5456 29.2352 77.7982 29.2352L77.7946 29.2388ZM79.0068 30.1228V28.9105L79.1872 27.8102L79.0068 26.7206V25.6094H80.0422V30.1228H79.0068Z" fill="#F1F1F1"/>
<path d="M1.08375 12.0918C1.68986 11.4857 2.42224 11.1791 3.28089 11.1791H6.2537V14.96C6.2537 15.8006 6.5784 16.2191 7.2278 16.2191H7.58857V17.4169H7.2278C6.36915 17.4169 5.80633 17.0273 5.52853 16.2444C5.01262 17.0273 4.2622 17.4169 3.28089 17.4169C2.41502 17.4169 1.67903 17.1139 1.07293 16.5042C0.463209 15.9017 0.160156 15.1657 0.160156 14.2998C0.160156 13.4339 0.466817 12.6979 1.08375 12.0918ZM1.92076 15.6635C2.29596 16.0387 2.75054 16.2264 3.28089 16.2264C3.81123 16.2264 4.21169 16.0532 4.54722 15.7032C4.88274 15.3533 5.05231 14.8879 5.05231 14.3034V12.3696H3.28089C2.74694 12.3696 2.29596 12.5609 1.92076 12.9361C1.54555 13.3149 1.35794 13.7695 1.35794 14.3034C1.35794 14.8374 1.54555 15.2883 1.92076 15.6635ZM1.68264 9.77204C1.68264 9.57361 1.7548 9.40044 1.8955 9.25973C2.0362 9.11903 2.20216 9.04688 2.39337 9.04688C2.58459 9.04688 2.76498 9.11903 2.91289 9.25973C3.05721 9.40044 3.13297 9.57361 3.13297 9.77204C3.13297 9.97046 3.06081 10.1436 2.91289 10.2843C2.76858 10.425 2.59541 10.4972 2.39337 10.4972C2.19134 10.4972 2.0362 10.425 1.8955 10.2843C1.7548 10.1436 1.68264 9.97407 1.68264 9.77204ZM3.79319 9.77204C3.79319 9.57361 3.86174 9.40044 3.99884 9.25973C4.13593 9.11903 4.3055 9.04688 4.50392 9.04688C4.70235 9.04688 4.87553 9.11903 5.01623 9.25973C5.15693 9.40044 5.22909 9.57361 5.22909 9.77204C5.22909 9.97046 5.15693 10.1436 5.01623 10.2843C4.87553 10.425 4.70235 10.4972 4.50392 10.4972C4.3055 10.4972 4.13593 10.425 3.99884 10.2843C3.86174 10.1436 3.79319 9.97407 3.79319 9.77204Z" fill="#F1F1F1"/>
<path d="M7.33911 16.2276H8.0751C8.40702 16.2276 8.66317 16.1157 8.83634 15.892C9.00952 15.6684 9.09971 15.3581 9.09971 14.9684V11.1875H10.2975V14.9684C10.2975 15.708 10.0955 16.3033 9.69139 16.7543C9.28731 17.2053 8.74976 17.4289 8.0751 17.4289H7.33911V16.2312V16.2276ZM6.43356 18.6881C6.56705 18.5474 6.73301 18.4752 6.93144 18.4752C7.12986 18.4752 7.29221 18.5474 7.43652 18.6881C7.58084 18.8288 7.6566 19.0019 7.6566 19.2004C7.6566 19.3988 7.58444 19.5611 7.43652 19.7055C7.29221 19.8498 7.12265 19.9255 6.93144 19.9255C6.74022 19.9255 6.56344 19.8534 6.42635 19.7127C6.28925 19.572 6.2207 19.3988 6.2207 19.2004C6.2207 19.0019 6.29286 18.8288 6.43356 18.6881ZM8.33125 19.2004C8.33125 19.0019 8.40341 18.8288 8.54411 18.6881C8.68482 18.5474 8.85799 18.4752 9.05642 18.4752C9.25484 18.4752 9.41719 18.5474 9.56151 18.6881C9.70582 18.8288 9.78158 19.0019 9.78158 19.2004C9.78158 19.3988 9.70942 19.5611 9.56151 19.7055C9.41359 19.8498 9.24763 19.9255 9.05642 19.9255C8.8652 19.9255 8.68482 19.8534 8.54411 19.7055C8.40341 19.5575 8.33125 19.3916 8.33125 19.2004Z" fill="#F1F1F1"/>
<path d="M10.7845 19.008C10.9576 19.0657 11.1308 19.0946 11.2968 19.0946C11.7622 19.0946 12.0941 18.9575 12.2889 18.6833C12.4837 18.4091 12.5811 17.9797 12.5811 17.3989V11.1827L13.7789 11.1719V17.4133C13.7789 18.3441 13.5697 19.0549 13.1476 19.5419C12.7255 20.029 12.123 20.2707 11.3328 20.2707C11.0154 20.2707 10.7195 20.2202 10.4453 20.1228L10.7809 19.0116L10.7845 19.008Z" fill="#F1F1F1"/>
<path d="M15.5898 7.68329H16.7768V14.9602C16.7768 15.8008 17.1051 16.2193 17.7617 16.2193H18.0756V17.4171H17.7617C17.0871 17.4171 16.5567 17.1934 16.1707 16.7424C15.7847 16.2915 15.5898 15.6998 15.5898 14.9566V7.67969V7.68329Z" fill="#F1F1F1"/>
<path d="M19.9348 16.2258C19.6029 15.9913 19.3359 15.6919 19.1411 15.3202C18.9463 14.9486 18.8489 14.5482 18.8489 14.1153C18.8489 13.3071 19.1411 12.618 19.7219 12.0444C20.3028 11.4707 21.0207 11.1821 21.8686 11.1821C22.7164 11.1821 23.4921 11.4888 24.091 12.1057C24.6898 12.7226 24.9893 13.4839 24.9893 14.3894V16.2258H26.2123V17.4236H17.8242V16.2258H19.9348ZM20.5084 15.663C20.8836 16.0382 21.3346 16.2258 21.8686 16.2258H23.7915V14.3029C23.7915 13.7617 23.6039 13.3035 23.2287 12.9283C22.8535 12.5531 22.3989 12.3655 21.8686 12.3655C21.3382 12.3655 20.8836 12.5567 20.5084 12.9319C20.1332 13.3107 19.9456 13.7653 19.9456 14.2992C19.9456 14.8332 20.1332 15.2842 20.5084 15.6594V15.663ZM20.0106 9.67047C20.0106 9.47204 20.0827 9.29887 20.2234 9.15816C20.3641 9.01746 20.5373 8.94531 20.7357 8.94531C20.9341 8.94531 21.0965 9.01746 21.2408 9.15816C21.3851 9.29887 21.4609 9.47204 21.4609 9.67047C21.4609 9.8689 21.3887 10.0421 21.2408 10.1828C21.0965 10.3235 20.9269 10.3956 20.7357 10.3956C20.5445 10.3956 20.3641 10.3235 20.2234 10.1828C20.0827 10.0421 20.0106 9.8689 20.0106 9.67047ZM22.4711 9.15816C22.6118 9.01746 22.7849 8.94531 22.9834 8.94531C23.1818 8.94531 23.3441 9.01746 23.4885 9.15816C23.6328 9.29887 23.7085 9.47204 23.7085 9.67047C23.7085 9.8689 23.6364 10.0421 23.4885 10.1828C23.3441 10.3235 23.1746 10.3956 22.9834 10.3956C22.7922 10.3956 22.6118 10.3235 22.4711 10.1828C22.3304 10.0421 22.2582 9.8689 22.2582 9.67047C22.2582 9.47204 22.3304 9.29887 22.4711 9.15816Z" fill="#F1F1F1"/>
<path d="M25.9629 16.2234H28.8852L26.9009 13.265V11.1797H31.5947C33.2578 11.1797 34.0912 11.7714 34.0912 12.9511C34.0912 13.2109 34.0407 13.4742 33.9361 13.7448C33.8315 14.0154 33.6583 14.3112 33.413 14.6323C33.1676 14.9534 32.9692 15.2024 32.8141 15.3828C32.659 15.5631 32.4028 15.8445 32.0456 16.227H35.0293L35.0401 17.4248H25.9665V16.227L25.9629 16.2234ZM28.2971 13.2037L30.2959 16.2234H30.6711C30.7613 16.1223 30.9056 15.9708 31.1004 15.7616C31.2952 15.5523 31.4431 15.3972 31.5369 15.2889C31.6307 15.1807 31.7606 15.04 31.9194 14.8632C32.0781 14.6865 32.1972 14.5421 32.2765 14.4267C32.3559 14.3112 32.4389 14.1814 32.5255 14.0407C32.612 13.9 32.677 13.7701 32.7131 13.6546C32.7491 13.5392 32.7708 13.4273 32.7708 13.3191C32.7708 12.9439 32.6409 12.695 32.3848 12.5651C32.125 12.4352 31.7281 12.3703 31.187 12.3703H28.3044V13.2073L28.2971 13.2037Z" fill="#F1F1F1"/>
<path d="M34.7907 16.2235H35.1262C35.7829 16.2235 36.1112 15.805 36.1112 14.9644V7.6875H37.3089V14.9644C37.3089 15.704 37.1141 16.2993 36.7209 16.7502C36.3312 17.2012 35.7973 17.4249 35.1226 17.4249H34.7871V16.2271L34.7907 16.2235Z" fill="#F1F1F1"/>
<path d="M40.5814 17.4171H39.3945V7.67969H40.5814V17.4171Z" fill="#F1F1F1"/>
<path d="M46.5385 12.0918C47.1446 11.4857 47.8769 11.1791 48.7356 11.1791H51.7048V14.96C51.7048 15.8006 52.0295 16.2191 52.6789 16.2191H53.0397V17.4169H52.6789C51.8202 17.4169 51.2574 17.0273 50.9796 16.2444C50.4637 17.0273 49.7133 17.4169 48.732 17.4169C47.8661 17.4169 47.1301 17.1139 46.524 16.5042C45.9179 15.898 45.6113 15.1584 45.6113 14.2962C45.6113 13.4339 45.9179 12.6943 46.5348 12.0882L46.5385 12.0918ZM47.3755 15.6635C47.7507 16.0387 48.2016 16.2264 48.7356 16.2264C49.2695 16.2264 49.6664 16.0532 50.0019 15.7032C50.3374 15.3533 50.507 14.8879 50.507 14.3034V12.3696H48.7356C48.2016 12.3696 47.7507 12.5609 47.3755 12.9361C47.0002 13.3149 46.8126 13.7695 46.8126 14.3034C46.8126 14.8374 47.0002 15.2883 47.3755 15.6635ZM47.1373 9.77204C47.1373 9.57361 47.2095 9.40044 47.3502 9.25973C47.4909 9.11903 47.6569 9.04688 47.8481 9.04688C48.0393 9.04688 48.2197 9.11903 48.3676 9.25973C48.5155 9.40044 48.5877 9.57361 48.5877 9.77204C48.5877 9.97046 48.5155 10.1436 48.3676 10.2843C48.2233 10.425 48.0501 10.4972 47.8481 10.4972C47.646 10.4972 47.4909 10.425 47.3502 10.2843C47.2095 10.1436 47.1373 9.97407 47.1373 9.77204ZM49.2479 9.77204C49.2479 9.57361 49.3164 9.40044 49.4535 9.25973C49.5906 9.11903 49.7602 9.04688 49.9586 9.04688C50.1571 9.04688 50.3302 9.11903 50.4709 9.25973C50.6116 9.40044 50.6838 9.57361 50.6838 9.77204C50.6838 9.97046 50.6116 10.1436 50.4709 10.2843C50.3302 10.425 50.1571 10.4972 49.9586 10.4972C49.7602 10.4972 49.5906 10.425 49.4535 10.2843C49.3164 10.1436 49.2479 9.97407 49.2479 9.77204Z" fill="#F1F1F1"/>
<path d="M52.7907 17.4211V16.2234H54.0137V11.1797H55.2007V13.0629C56.2974 11.8074 57.405 11.1797 58.5198 11.1797C59.4037 11.1797 60.1181 11.4827 60.6737 12.0925C61.2256 12.6986 61.5034 13.4851 61.5034 14.4519V14.9895C61.5034 15.8121 61.8137 16.227 62.4379 16.227H62.7734V17.4248H62.4379C61.6983 17.4248 61.1715 17.1109 60.8649 16.4867C60.4824 17.1109 59.9124 17.4248 59.1548 17.4248H52.7871L52.7907 17.4211ZM55.2007 16.2234H59.1584C59.4903 16.2234 59.7645 16.1043 59.981 15.8662C60.1974 15.6281 60.3057 15.2853 60.3057 14.838V14.4628C60.3057 13.8314 60.1361 13.3227 59.7934 12.9403C59.4506 12.5579 58.9852 12.3666 58.3935 12.3666C57.4519 12.3666 56.3876 13.081 55.1971 14.5133V16.2234H55.2007Z" fill="#F1F1F1"/>
<path d="M62.5273 17.4199V16.2221H62.888C63.5447 16.2221 63.873 15.8036 63.873 14.963V11.1821H65.0599V14.963C65.0599 15.8036 65.3882 16.2221 66.0449 16.2221H66.4056V17.4199H66.0449C65.3377 17.4199 64.8146 17.1385 64.4719 16.5721C64.1147 17.1385 63.5843 17.4199 62.888 17.4199H62.5273ZM63.7251 9.74261C63.7251 9.53336 63.7972 9.35658 63.9451 9.21227C64.0894 9.06795 64.2662 8.99219 64.4755 8.99219C64.6847 8.99219 64.8615 9.06435 65.0058 9.21227C65.1501 9.36018 65.2259 9.53336 65.2259 9.74261C65.2259 9.95186 65.1537 10.125 65.013 10.2657C64.8651 10.4136 64.6847 10.4894 64.4755 10.4894C64.2662 10.4894 64.0894 10.4172 63.9451 10.2693C63.8008 10.125 63.7251 9.94825 63.7251 9.739V9.74261Z" fill="#F1F1F1"/>
<path d="M66.1621 16.2234H68.0345C67.7278 16.0141 67.4825 15.7435 67.2985 15.4044C67.1145 15.0689 67.0243 14.6973 67.0243 14.3004C67.0243 13.4346 67.331 12.6986 67.9407 12.0925C68.554 11.4863 69.2864 11.1797 70.145 11.1797C71.0037 11.1797 71.7361 11.4827 72.3494 12.0925C72.9627 12.6986 73.2658 13.4382 73.2658 14.3004V15.2493C73.2658 15.5415 73.3451 15.776 73.5039 15.9564C73.6626 16.1368 73.8827 16.2234 74.1641 16.2234H74.4996V17.4211H74.1641C73.7312 17.4211 73.3776 17.3129 73.1034 17.0964C72.8292 16.88 72.6452 16.5805 72.555 16.1981C72.2808 16.5733 71.9309 16.8692 71.5052 17.0892C71.0795 17.3093 70.6285 17.4211 70.145 17.4211H66.1621V16.2234ZM68.7849 15.6605C69.1601 16.0358 69.6111 16.2234 70.145 16.2234C70.679 16.2234 71.13 16.0358 71.5052 15.6605C71.8804 15.2853 72.068 14.8344 72.068 14.3004C72.068 13.7665 71.8804 13.3119 71.5052 12.9331C71.13 12.5543 70.6754 12.3666 70.145 12.3666C69.6147 12.3666 69.1601 12.5579 68.7849 12.9331C68.4097 13.3119 68.2221 13.7665 68.2221 14.3004C68.2221 14.8344 68.4097 15.2853 68.7849 15.6605Z" fill="#F1F1F1"/>
<path d="M74.2477 16.2235H74.5833C75.2399 16.2235 75.5682 15.805 75.5682 14.9644V7.6875H76.766V14.9644C76.766 15.704 76.5712 16.2993 76.1779 16.7502C75.7883 17.2012 75.2543 17.4249 74.5797 17.4249H74.2441V16.2271L74.2477 16.2235Z" fill="#F1F1F1"/>
<path d="M80.0443 17.4171H78.8574V7.67969H80.0443V17.4171Z" fill="#F1F1F1"/>
<path d="M103.391 30.0234H102.963C102.536 30.0234 102.189 30.3696 102.189 30.7967V31.2253C102.189 31.6524 102.536 31.9987 102.963 31.9987H103.391C103.819 31.9987 104.165 31.6524 104.165 31.2253V30.7967C104.165 30.3696 103.819 30.0234 103.391 30.0234Z" fill="#E0A700"/>
<path d="M105.755 30.0234H105.326C104.899 30.0234 104.553 30.3696 104.553 30.7967V31.2253C104.553 31.6524 104.899 31.9987 105.326 31.9987H105.755C106.182 31.9987 106.528 31.6524 106.528 31.2253V30.7967C106.528 30.3696 106.182 30.0234 105.755 30.0234Z" fill="#E0A700"/>
<path d="M105.755 27.7812H105.326C104.899 27.7812 104.553 28.1275 104.553 28.5546V28.9832C104.553 29.4103 104.899 29.7565 105.326 29.7565H105.755C106.182 29.7565 106.528 29.4103 106.528 28.9832V28.5546C106.528 28.1275 106.182 27.7812 105.755 27.7812Z" fill="#E0A700"/>
<path d="M103.391 27.7812H102.963C102.536 27.7812 102.189 28.1275 102.189 28.5546V28.9832C102.189 29.4103 102.536 29.7565 102.963 29.7565H103.391C103.819 29.7565 104.165 29.4103 104.165 28.9832V28.5546C104.165 28.1275 103.819 27.7812 103.391 27.7812Z" fill="#E0A700"/>
<path d="M107.254 0H101.391C101.206 0 101.036 0.111036 100.964 0.28246L87.7623 31.3258C87.6318 31.6317 87.8558 31.9706 88.1889 31.9706H95.0751C95.1881 31.9706 95.2972 31.9297 95.3809 31.8557L104.02 24.2663C104.194 24.1143 104.455 24.1124 104.63 24.2643L113.429 31.8596C113.513 31.9317 113.62 31.9726 113.731 31.9726H120.538C120.871 31.9726 121.095 31.6317 120.964 31.3258L107.681 0.280512C107.609 0.109088 107.439 0 107.254 0ZM100.288 19.032L103.929 9.98351C104.085 9.59391 104.636 9.59586 104.79 9.98546L108.363 19.0339C108.483 19.3378 108.259 19.667 107.932 19.667H100.721C100.391 19.667 100.167 19.3359 100.29 19.03L100.288 19.032Z" fill="#F1F1F1"/>
</g>
</g>
<defs>
<clipPath id="clip0_722_2">
<rect width="121" height="32" fill="white"/>
</clipPath>
</defs>
</svg>
