<svg width="20" height="20" viewBox="0 0 20 20" fill="none" xmlns="http://www.w3.org/2000/svg">
<g clip-path="url(#clip0_2383_7296)">
<path fill-rule="evenodd" clip-rule="evenodd" d="M10 0.625C4.82562 0.625 0.625 4.82562 0.625 10C0.625 15.1744 4.82562 19.375 10 19.375C15.1744 19.375 19.375 15.1744 19.375 10C19.375 4.82562 15.1744 0.625 10 0.625ZM9.375 1.89875V18.1012C5.1825 17.7819 1.875 14.2738 1.875 10C1.875 5.72625 5.1825 2.21813 9.375 1.89875ZM18.0712 10.9375C17.6413 14.6731 14.6731 17.6413 10.9375 18.0712L18.0712 10.9375ZM17.7388 7.52C17.9075 8.045 18.0238 8.59375 18.0819 9.15938L10.625 16.6163V14.6337L17.7388 7.52ZM16.4494 5.06C16.74 5.43875 16.9981 5.84438 17.2194 6.27125L10.625 12.8663V10.8837L16.4494 5.06ZM14.5138 3.245L14.5044 3.25437L10.625 7.13375V9.11625L15.6131 4.12812C15.2729 3.80249 14.9051 3.50701 14.5138 3.245ZM10.625 1.89875C11.6019 1.97313 12.53 2.22063 13.3806 2.61063L10.625 5.36625V1.89875Z" fill="#0D0D0D"/>
</g>
<defs>
<clipPath id="clip0_2383_7296">
<rect width="20" height="20" fill="white"/>
</clipPath>
</defs>
</svg>
