<svg width="20" height="20" viewBox="0 0 20 20" fill="none" xmlns="http://www.w3.org/2000/svg">
<path d="M14.3334 17.2767H6.33337C4.49588 17.2767 3 15.7809 3 13.9434V10.9434H17.6666V13.9434C17.6666 15.7809 16.1708 17.2767 14.3334 17.2767ZM3.66663 11.61V13.9434C3.66663 15.4142 4.86256 16.61 6.33337 16.61H14.3334C15.8042 16.61 17 15.4142 17 13.9434V11.61H3.66663Z" fill="#0D0D0D"/>
<path d="M7 16.9434H7.66663V17.9434H7V16.9434ZM13 16.9434H13.6666V17.9434H13V16.9434ZM5.66663 11.2767H5V5.27673C5 3.98914 6.04578 2.94336 7.33337 2.94336C8.62087 2.94336 9.66663 3.98914 9.66663 5.27673V5.60998H9V5.27673C9 4.35583 8.25416 3.60998 7.33337 3.60998C6.41247 3.60998 5.66663 4.35583 5.66663 5.27673V11.2767Z" fill="#0D0D0D"/>
<path d="M11.6666 8.27734H7V7.61059C7 6.32309 8.04578 5.27734 9.33337 5.27734C10.6209 5.27734 11.6666 6.32313 11.6666 7.61059V8.27734ZM7.66663 7.61059H11C11 6.68981 10.2542 5.94397 9.33337 5.94397C8.41247 5.94397 7.66663 6.68981 7.66663 7.61059Z" fill="#0D0D0D"/>
</svg>
