<svg width="15" height="15" viewBox="0 0 15 15" fill="none" xmlns="http://www.w3.org/2000/svg">
<path d="M14.043 7.73774V3.02312C14.043 1.87632 13.1101 0.943359 11.9633 0.943359H2.97691C1.83012 0.943359 0.897158 1.87635 0.897158 3.02312V7.79856C0.341689 8.37929 0 9.16611 0 10.0312V13.6061C0 14.2624 0.533877 14.7963 1.19013 14.7963C1.84635 14.7963 2.38022 14.2624 2.38022 13.6061V13.2369H12.6198V13.6061C12.6198 14.2624 13.1537 14.7963 13.8099 14.7963C14.4661 14.7963 15 14.2624 15 13.6061V10.0312C15 9.1355 14.6337 8.32374 14.043 7.73774ZM2.97691 1.5293H11.9633C12.787 1.5293 13.4571 2.19943 13.4571 3.02312V7.27664C13.2765 7.16539 13.0854 7.07225 12.8864 6.99858V6.02435C12.8864 5.16067 12.1838 4.45802 11.3201 4.45802H8.77339C8.24909 4.45802 7.78447 4.71721 7.50003 5.11392C7.21559 4.71721 6.75097 4.45802 6.22667 4.45802H3.67995C2.81628 4.45802 2.11362 5.16064 2.11362 6.02435V6.99858C1.89254 7.08045 1.68111 7.18633 1.48312 7.31432V3.02312C1.4831 2.19943 2.1532 1.5293 2.97691 1.5293ZM3.23241 6.79884C3.05092 6.79884 2.87291 6.81413 2.6995 6.84302V6.02435C2.6995 5.48376 3.13931 5.04396 3.67989 5.04396H6.22661C6.7672 5.04396 7.207 5.48376 7.207 6.02435V6.79887H3.23241V6.79884ZM7.79297 6.02432C7.79297 5.48373 8.23277 5.04393 8.77336 5.04393H11.3201C11.8607 5.04393 12.3005 5.48373 12.3005 6.02432V6.84299C12.1244 6.81361 11.9461 6.79883 11.7676 6.79881H7.79297V6.02432ZM3.23241 7.38478H11.7676C13.2268 7.38478 14.414 8.57197 14.414 10.0312V10.9004H11.4757C11.3139 10.9004 11.1827 11.0316 11.1827 11.1934C11.1827 11.3551 11.3139 11.4863 11.4757 11.4863H14.4141V12.651H0.585938V11.4863H8.54599C8.70779 11.4863 8.83895 11.3551 8.83895 11.1934C8.83895 11.0316 8.70779 10.9004 8.54599 10.9004H0.585938V10.0312C0.585938 8.57197 1.77313 7.38478 3.23241 7.38478ZM1.79429 13.6061C1.79429 13.9393 1.52326 14.2103 1.19013 14.2103C0.856992 14.2103 0.585938 13.9393 0.585938 13.6061V13.2369H1.79429V13.6061ZM13.8099 14.2103C13.4767 14.2103 13.2057 13.9393 13.2057 13.6061V13.2369H14.4141V13.6061C14.4141 13.9393 14.143 14.2103 13.8099 14.2103Z" fill="#0D0D0D"/>
<path d="M10.0109 11.4866C10.1728 11.4866 10.304 11.3554 10.304 11.1935C10.304 11.0316 10.1728 10.9004 10.0109 10.9004C9.84901 10.9004 9.71777 11.0316 9.71777 11.1935C9.71777 11.3554 9.84901 11.4866 10.0109 11.4866Z" fill="#0D0D0D"/>
</svg>
