<svg width="12" height="14" viewBox="0 0 12 14" fill="none" xmlns="http://www.w3.org/2000/svg">
<path d="M0.666016 3.72526H11.3327M4.66602 6.39193V10.3919M7.33268 6.39193V10.3919M1.33268 3.72526L1.99935 11.7253C1.99935 12.0789 2.13982 12.418 2.38987 12.6681C2.63992 12.9181 2.97906 13.0586 3.33268 13.0586H8.66602C9.01964 13.0586 9.35878 12.9181 9.60882 12.6681C9.85887 12.418 9.99935 12.0789 9.99935 11.7253L10.666 3.72526M3.99935 3.72526V1.72526C3.99935 1.54845 4.06959 1.37888 4.19461 1.25386C4.31964 1.12883 4.4892 1.05859 4.66602 1.05859H7.33268C7.50949 1.05859 7.67906 1.12883 7.80409 1.25386C7.92911 1.37888 7.99935 1.54845 7.99935 1.72526V3.72526" stroke="#FF0000" stroke-width="0.96" stroke-linecap="round" stroke-linejoin="round"/>
</svg>
