<svg width="20" height="20" viewBox="0 0 20 20" fill="none" xmlns="http://www.w3.org/2000/svg">
<path d="M9.16667 3.3431H10.8333M10 14.1764V14.1848M5 4.17643C5 3.7344 5.17559 3.31048 5.48816 2.99792C5.80072 2.68536 6.22464 2.50977 6.66667 2.50977H13.3333C13.7754 2.50977 14.1993 2.68536 14.5118 2.99792C14.8244 3.31048 15 3.7344 15 4.17643V15.8431C15 16.2851 14.8244 16.709 14.5118 17.0216C14.1993 17.3342 13.7754 17.5098 13.3333 17.5098H6.66667C6.22464 17.5098 5.80072 17.3342 5.48816 17.0216C5.17559 16.709 5 16.2851 5 15.8431V4.17643Z" stroke="#0D0D0D" stroke-width="1.5" stroke-linecap="round" stroke-linejoin="round"/>
</svg>
