<svg width="13" height="13" viewBox="0 0 13 13" fill="none" xmlns="http://www.w3.org/2000/svg">
<path d="M2.66602 3.72533H1.99935C1.64573 3.72533 1.30659 3.86581 1.05654 4.11586C0.806491 4.3659 0.666016 4.70504 0.666016 5.05867V11.0587C0.666016 11.4123 0.806491 11.7514 1.05654 12.0015C1.30659 12.2515 1.64573 12.392 1.99935 12.392H7.99935C8.35297 12.392 8.69211 12.2515 8.94216 12.0015C9.19221 11.7514 9.33268 11.4123 9.33268 11.0587V10.392M8.66602 2.392L10.666 4.392M11.5893 3.44867C11.8519 3.1861 11.9994 2.82999 11.9994 2.45867C11.9994 2.08734 11.8519 1.73123 11.5893 1.46867C11.3268 1.2061 10.9707 1.05859 10.5993 1.05859C10.228 1.05859 9.87191 1.2061 9.60935 1.46867L3.99935 7.05867V9.05867H5.99935L11.5893 3.44867Z" stroke="#0D0D0F" stroke-width="0.96" stroke-linecap="round" stroke-linejoin="round"/>
</svg>
