<svg width="20" height="20" viewBox="0 0 20 20" fill="none" xmlns="http://www.w3.org/2000/svg">
<path d="M2.5 5.84245C2.5 5.40042 2.67559 4.9765 2.98816 4.66394C3.30072 4.35138 3.72464 4.17578 4.16667 4.17578H15.8333C16.2754 4.17578 16.6993 4.35138 17.0118 4.66394C17.3244 4.9765 17.5 5.40042 17.5 5.84245M2.5 5.84245V14.1758C2.5 14.6178 2.67559 15.0417 2.98816 15.3543C3.30072 15.6669 3.72464 15.8424 4.16667 15.8424H15.8333C16.2754 15.8424 16.6993 15.6669 17.0118 15.3543C17.3244 15.0417 17.5 14.6178 17.5 14.1758V5.84245M2.5 5.84245L10 10.8424L17.5 5.84245" stroke="#0D0D0D" stroke-width="1.5" stroke-linecap="round" stroke-linejoin="round"/>
</svg>
