<svg width="24" height="25" viewBox="0 0 24 25" fill="none" xmlns="http://www.w3.org/2000/svg">
<path d="M12.002 20.5L9.00195 21.5V13L4.52195 8.072C4.18739 7.70393 4.002 7.2244 4.00195 6.727V4.5H20.002V6.672C20.0019 7.20239 19.7911 7.71101 19.416 8.086L15.002 12.5V14M19.003 21.5C18.4725 21.5 17.9638 21.2893 17.5887 20.9142C17.2137 20.5391 17.003 20.0304 17.003 19.5C17.003 18.9696 17.2137 18.4609 17.5887 18.0858C17.9638 17.7107 18.4725 17.5 19.003 17.5M19.003 21.5C19.5334 21.5 20.0421 21.2893 20.4172 20.9142C20.7922 20.5391 21.003 20.0304 21.003 19.5C21.003 18.9696 20.7922 18.4609 20.4172 18.0858C20.0421 17.7107 19.5334 17.5 19.003 17.5M19.003 21.5V23M19.003 17.5V16M22.0339 17.75L20.7349 18.5M17.2719 20.5L15.9719 21.25M15.9719 17.75L17.2719 18.5M20.7349 20.5L22.0349 21.25" stroke="white" stroke-width="1.5" stroke-linecap="round" stroke-linejoin="round"/>
</svg>
