<svg width="32" height="32" viewBox="0 0 32 32" fill="none" xmlns="http://www.w3.org/2000/svg">
<path d="M6.66667 28.0098H25.3333C26.8061 28.0098 28 26.8159 28 25.3431V6.67643C28 5.20367 26.8061 4.00977 25.3333 4.00977H6.66667C5.19391 4.00977 4 5.20367 4 6.67643V25.3431C4 26.8159 5.19391 28.0098 6.66667 28.0098ZM6.66667 28.0098L21.3333 13.3431L28 20.0098M13.3333 11.3431C13.3333 12.4477 12.4379 13.3431 11.3333 13.3431C10.2288 13.3431 9.33333 12.4477 9.33333 11.3431C9.33333 10.2385 10.2288 9.3431 11.3333 9.3431C12.4379 9.3431 13.3333 10.2385 13.3333 11.3431Z" stroke="#AAAAAA" stroke-linecap="round" stroke-linejoin="round"/>
</svg>
