<svg width="16" height="17" viewBox="0 0 16 17" fill="none" xmlns="http://www.w3.org/2000/svg">
<path d="M7.05667 7.1166C6.80666 7.3667 6.66624 7.70587 6.6663 8.0595C6.66636 8.41313 6.8069 8.75225 7.057 9.00226C7.3071 9.25227 7.64627 9.39269 7.9999 9.39263C8.35353 9.39257 8.69266 9.25203 8.94267 9.00193M11.1207 11.1739C10.1855 11.759 9.1031 12.0659 8 12.0586C5.6 12.0586 3.6 10.7253 2 8.05859C2.848 6.64526 3.808 5.60659 4.88 4.94259M6.78667 4.17859C7.18603 4.09775 7.59254 4.05754 8 4.05859C10.4 4.05859 12.4 5.39193 14 8.05859C13.556 8.79859 13.0807 9.43659 12.5747 9.97193M2 2.05859L14 14.0586" stroke="#0D0D0F" stroke-width="0.96" stroke-linecap="round" stroke-linejoin="round"/>
</svg>
