<svg xmlns="http://www.w3.org/2000/svg" version="1.1" xmlns:xlink="http://www.w3.org/1999/xlink" width="42" height="42" x="0" y="0" viewBox="0 0 512 512" style="enable-background:new 0 0 512 512" xml:space="preserve" class=""><g><path d="M497 142.465h-56.23V86.23c0-8.285-6.72-15-15-15h-56.235V15c0-8.285-6.715-15-15-15H15C6.715 0 0 6.715 0 15v237.438c0 8.285 6.715 15 15 15h56.23v56.23c0 8.285 6.715 15 15 15h56.235v56.234c0 8.282 6.715 15 15 15H497c8.285 0 15-6.718 15-15V157.465c0-8.285-6.715-15-15-15zM30 30h309.535v207.438H30zm71.23 237.438h253.305c8.285 0 15-6.715 15-15V101.23h41.235v207.442H101.23zM482 379.901H172.465v-41.23H425.77c8.285 0 15-6.719 15-15V172.465H482zm0 0" fill="#000000" opacity="1" data-original="#000000"></path></g></svg>