<svg width="21" height="17" viewBox="0 0 21 17" fill="none" xmlns="http://www.w3.org/2000/svg">
<path d="M7.34863 14.1804C7.34863 14.6699 7.68253 15.0966 8.15848 15.2153L12.4352 16.282C13.1099 16.4502 13.7636 15.9411 13.7636 15.2471V2.51277C13.7636 2.02331 13.4297 1.59666 12.9537 1.47794L8.67707 0.411277C8.00231 0.242979 7.34863 0.752162 7.34863 1.4461V14.1804Z" fill="#0D0D0F"/>
<path fill-rule="evenodd" clip-rule="evenodd" d="M5.21025 1.81469C5.21025 1.06007 4.4463 0.544058 3.74401 0.824325L1.60568 1.67766C1.19976 1.83964 0.933594 2.23187 0.933594 2.66803V15.3037C0.933594 16.0583 1.69754 16.5743 2.39984 16.2941L4.53816 15.4407C4.94408 15.2787 5.21025 14.8865 5.21025 14.4503V1.81469ZM15.9019 14.877C15.9019 15.6317 16.6658 16.1476 17.3682 15.8674L19.5065 15.0141C19.9123 14.8521 20.1786 14.4598 20.1786 14.0237V1.38803C20.1786 0.633402 19.4146 0.117391 18.7123 0.397658L16.574 1.25099C16.1681 1.41298 15.9019 1.8052 15.9019 2.24136V14.877Z" fill="#0D0D0F" fill-opacity="0.2"/>
</svg>
