<svg width="48" height="48" viewBox="0 0 48 48" fill="none" xmlns="http://www.w3.org/2000/svg">
<rect width="48" height="48" rx="24" fill="#0D0D0F" fill-opacity="0.2"/>
<path d="M30.3641 16.6361C32.0164 18.2882 32.9614 20.5182 32.9993 22.8545C33.0372 25.1908 32.1649 27.4502 30.5671 29.1551L30.3641 29.3651L26.1211 33.6071C25.5827 34.1451 24.8599 34.4584 24.0992 34.4834C23.3385 34.5085 22.5967 34.2435 22.0241 33.7421L21.8801 33.6071L17.6361 29.3641C15.9482 27.6762 15 25.387 15 23.0001C15 20.6131 15.9482 18.3239 17.6361 16.6361C19.3239 14.9482 21.6131 14 24.0001 14C26.387 14 28.6762 14.9482 30.3641 16.6361ZM24.0001 20.0001C23.6061 20.0001 23.216 20.0777 22.852 20.2284C22.488 20.3792 22.1573 20.6002 21.8787 20.8787C21.6002 21.1573 21.3792 21.488 21.2284 21.852C21.0777 22.216 21.0001 22.6061 21.0001 23.0001C21.0001 23.394 21.0777 23.7841 21.2284 24.1481C21.3792 24.5121 21.6002 24.8428 21.8787 25.1214C22.1573 25.4 22.488 25.6209 22.852 25.7717C23.216 25.9225 23.6061 26.0001 24.0001 26.0001C24.7957 26.0001 25.5588 25.684 26.1214 25.1214C26.684 24.5588 27.0001 23.7957 27.0001 23.0001C27.0001 22.2044 26.684 21.4413 26.1214 20.8787C25.5588 20.3161 24.7957 20.0001 24.0001 20.0001Z" fill="#0D0D0D"/>
</svg>
