<svg xmlns="http://www.w3.org/2000/svg" version="1.1" xmlns:xlink="http://www.w3.org/1999/xlink" width="52" height="52" x="0" y="0" viewBox="0 0 512 512" style="enable-background:new 0 0 512 512" xml:space="preserve"><g><path d="M138.664 230.164c26.602 0 48.07-11.781 48.07-42.941v-3.61c0-15.39-8.168-23.75-19.379-27.93 9.5-4.37 14.63-17.292 14.63-31.16 0-25.652-18.239-34.39-42.372-34.39-32.68 0-43.316 19.187-43.316 34.008 0 9.12 1.707 11.972 15.387 11.972 11.02 0 13.87-4.37 13.87-10.832 0-7.41 4.75-9.687 14.06-9.687 7.792 0 14.062 2.66 14.062 13.68 0 15.39-7.602 16.34-14.82 16.34-6.461 0-8.551 5.698-8.551 11.402 0 5.699 2.09 11.398 8.55 11.398 10.45 0 18.243 2.469 18.243 15.2v3.609c0 12.351-4.563 17.101-17.48 17.101-8.552 0-16.911-2.09-16.911-11.02 0-7.222-3.043-9.882-15.2-9.882-10.452 0-14.062 2.281-14.062 10.832 0 15.96 12.54 35.91 45.22 35.91zM256.273 115.973c8.93 0 16.532 3.8 16.532 11.02 0 8.737 7.218 10.827 15.39 10.827 9.5 0 13.871-2.847 13.871-11.968 0-15.77-12.73-35.72-44.84-35.72-27.363 0-48.453 12.161-48.453 44.84v50.352c0 32.68 20.52 44.84 46.743 44.84 26.218 0 46.55-12.16 46.55-44.84v-1.71c0-30.4-18.242-39.9-39.902-39.9-9.117 0-17.668 1.708-23.75 8.356v-17.097c0-13.114 6.652-19 17.86-19zm-.949 50.539c10.832 0 17.102 5.32 17.102 19.191v1.711c0 13.11-6.27 18.809-16.91 18.809s-17.102-5.7-17.102-18.809v-3.422c0-12.539 6.652-17.48 16.91-17.48zM371.797 169.934c5.887 0 9.5-3.993 9.5-9.692 0-5.89-3.613-9.5-9.5-9.5-6.082 0-9.692 3.61-9.692 9.5 0 5.7 3.61 9.692 9.692 9.692zm0 0" fill="#000000" opacity="1" data-original="#000000"></path><path d="M371.605 230.164c26.22 0 46.739-12.16 46.739-44.844v-50.347c0-32.684-20.52-44.84-46.739-44.84-26.222 0-46.55 12.156-46.55 44.84v50.347c0 32.684 20.328 44.844 46.55 44.844zm-16.91-95.191c0-13.11 6.27-19 16.91-19s17.098 5.89 17.098 19v50.351c0 13.11-6.457 19-17.098 19s-16.91-5.89-16.91-19zM454.352 90c24.812 0 45-20.188 45-45s-20.188-45-45-45c-24.817 0-45 20.188-45 45s20.183 45 45 45zm0-60c8.27 0 15 6.73 15 15s-6.73 15-15 15c-8.274 0-15-6.73-15-15s6.726-15 15-15zm0 0" fill="#000000" opacity="1" data-original="#000000"></path><path d="M466.848 146.504c-6.825-4.691-16.164-2.969-20.86 3.86-4.695 6.823-2.968 16.163 3.856 20.859 14.668 10.09 32.156 26.27 32.156 46.039 0 17.937-14.941 36.52-42.078 52.332-29.672 17.285-72.117 30.133-119.516 36.168-8.219 1.047-14.031 8.558-12.984 16.777.965 7.574 7.422 13.106 14.86 13.106.632 0 1.273-.04 1.917-.122 52.04-6.628 97.278-20.464 130.824-40.011C492.297 273.797 512 246.738 512 217.262c0-25.969-15.613-50.438-45.152-70.758zM226.605 274.156c-5.855-5.86-15.355-5.86-21.21 0-5.86 5.856-5.86 15.356 0 21.211l13.062 13.067c-47.96-3.418-92.023-13.364-126.762-28.856C52.488 262.086 30 239.375 30 217.262c0-17.653 14.555-36 40.98-51.664 7.13-4.227 9.48-13.426 5.258-20.551-4.226-7.129-13.425-9.48-20.554-5.258C9.66 167.07 0 196.977 0 217.262c0 34.992 28.227 66.851 79.477 89.715 38.949 17.37 88.226 28.324 141.414 31.68l-15.496 15.5c-5.86 5.855-5.86 15.355 0 21.21 2.93 2.93 6.765 4.395 10.605 4.395s7.68-1.465 10.605-4.395l40-40c5.86-5.855 5.86-15.351 0-21.21zm0 0" fill="#000000" opacity="1" data-original="#000000"></path></g></svg>