<svg width="15" height="15" viewBox="0 0 15 15" fill="none" xmlns="http://www.w3.org/2000/svg">
<path d="M1.16687 12.8328V1.75528L1.0452 1.87778C0.966962 1.95601 0.860847 1.99997 0.750201 1.99997C0.639554 1.99997 0.53344 1.95601 0.455201 1.87778C0.376962 1.79954 0.333008 1.69342 0.333008 1.58278C0.333008 1.47213 0.376962 1.36601 0.455201 1.28778L1.28853 0.454443C1.32724 0.41564 1.37322 0.384854 1.42384 0.363849C1.47446 0.342843 1.52873 0.332031 1.58353 0.332031C1.63834 0.332031 1.69261 0.342843 1.74323 0.363849C1.79385 0.384854 1.83983 0.41564 1.87853 0.454443L2.71187 1.28778C2.79011 1.36601 2.83406 1.47213 2.83406 1.58278C2.83406 1.69342 2.79011 1.79954 2.71187 1.87778C2.63363 1.95601 2.52751 1.99997 2.41687 1.99997C2.30622 1.99997 2.20011 1.95601 2.12187 1.87778L2.0002 1.75528V12.8328H13.0777L12.9552 12.7111C12.877 12.6329 12.833 12.5268 12.833 12.4161C12.833 12.3055 12.877 12.1993 12.9552 12.1211C13.0334 12.0429 13.1396 11.9989 13.2502 11.9989C13.3608 11.9989 13.467 12.0429 13.5452 12.1211L14.3785 12.9544C14.4173 12.9931 14.4481 13.0391 14.4691 13.0897C14.4901 13.1404 14.5009 13.1946 14.5009 13.2494C14.5009 13.3042 14.4901 13.3585 14.4691 13.4091C14.4481 13.4598 14.4173 13.5057 14.3785 13.5444L13.5452 14.3778C13.467 14.456 13.3608 14.5 13.2502 14.5C13.1396 14.5 13.0334 14.456 12.9552 14.3778C12.877 14.2995 12.833 14.1934 12.833 14.0828C12.833 13.9721 12.877 13.866 12.9552 13.7878L13.0777 13.6661H2.0002V14.0828C2.0002 14.1933 1.9563 14.2993 1.87816 14.3774C1.80002 14.4555 1.69404 14.4994 1.58353 14.4994C1.47303 14.4994 1.36705 14.4555 1.28891 14.3774C1.21077 14.2993 1.16687 14.1933 1.16687 14.0828V13.6661H0.750201C0.639694 13.6661 0.533713 13.6222 0.455573 13.5441C0.377433 13.4659 0.333534 13.3599 0.333534 13.2494C0.333534 13.1389 0.377433 13.033 0.455573 12.9548C0.533713 12.8767 0.639694 12.8328 0.750201 12.8328H1.16687ZM8.94353 1.54444L13.481 4.56944C13.5283 4.59896 13.5692 4.63768 13.6013 4.68328C13.6333 4.72889 13.6559 4.78047 13.6677 4.83496C13.6794 4.88945 13.6801 4.94574 13.6697 5.00051C13.6594 5.05528 13.6381 5.10741 13.6072 5.15381C13.5763 5.20021 13.5364 5.23994 13.4899 5.27065C13.4433 5.30135 13.3911 5.32241 13.3363 5.33257C13.2815 5.34273 13.2252 5.34179 13.1708 5.3298C13.1163 5.31781 13.0648 5.29502 13.0194 5.26278L12.8335 5.13944V10.1244C12.8331 10.4006 12.7232 10.6653 12.5279 10.8605C12.3327 11.0558 12.068 11.1657 11.7919 11.1661H4.70853C4.4324 11.1657 4.16771 11.0558 3.97245 10.8605C3.7772 10.6653 3.66731 10.4006 3.66687 10.1244V5.13944L3.48103 5.26278C3.38909 5.32018 3.2784 5.33949 3.17245 5.31662C3.0665 5.29375 2.97363 5.23049 2.91356 5.14027C2.85348 5.05005 2.83093 4.93997 2.85068 4.83339C2.87044 4.72682 2.93095 4.63214 3.01937 4.56944L7.55687 1.54444C7.76219 1.40757 8.00344 1.33453 8.2502 1.33453C8.49696 1.33453 8.73821 1.40757 8.94353 1.54444ZM12.0002 4.58278L8.48103 2.23778C8.41265 2.19227 8.33234 2.16799 8.2502 2.16799C8.16806 2.16799 8.08775 2.19227 8.01937 2.23778L4.5002 4.58278V10.1244C4.5002 10.1797 4.52215 10.2327 4.56122 10.2718C4.60029 10.3108 4.65328 10.3328 4.70853 10.3328H11.7919C11.8471 10.3328 11.9001 10.3108 11.9392 10.2718C11.9783 10.2327 12.0002 10.1797 12.0002 10.1244V4.58278Z" fill="#0D0D0D"/>
</svg>
