<svg width="12" height="11" viewBox="0 0 12 11" fill="none" xmlns="http://www.w3.org/2000/svg">
<path d="M4.12114 3.66898L0.931139 4.13148L0.874639 4.14298C0.789108 4.16569 0.711136 4.21069 0.648685 4.27339C0.586234 4.33608 0.541541 4.41423 0.51917 4.49985C0.496799 4.58547 0.497552 4.67549 0.521353 4.76072C0.545153 4.84595 0.591147 4.92334 0.654639 4.98498L2.96564 7.23448L2.42064 10.412L2.41414 10.467C2.4089 10.5554 2.42727 10.6437 2.46736 10.7227C2.50746 10.8018 2.56783 10.8687 2.64231 10.9167C2.71678 10.9648 2.80268 10.9921 2.89121 10.996C2.97974 10.9999 3.06772 10.9803 3.14614 10.939L5.99914 9.43898L8.84564 10.939L8.89564 10.962C8.97817 10.9945 9.06786 11.0045 9.15552 10.9909C9.24317 10.9773 9.32563 10.9406 9.39443 10.8846C9.46324 10.8286 9.51592 10.7554 9.54706 10.6723C9.5782 10.5892 9.58668 10.4994 9.57164 10.412L9.02614 7.23448L11.3381 4.98448L11.3771 4.94198C11.4328 4.87337 11.4694 4.79121 11.483 4.70388C11.4966 4.61655 11.4869 4.52717 11.4547 4.44485C11.4225 4.36253 11.3691 4.2902 11.2999 4.23524C11.2307 4.18028 11.1481 4.14465 11.0606 4.13198L7.87064 3.66898L6.44464 0.778985C6.40338 0.695252 6.3395 0.624742 6.26023 0.575437C6.18097 0.526132 6.08949 0.5 5.99614 0.5C5.90279 0.5 5.81131 0.526132 5.73204 0.575437C5.65278 0.624742 5.5889 0.695252 5.54764 0.778985L4.12114 3.66898Z" fill="#FFBE4C"/>
</svg>
