<svg width="42" height="42" viewBox="0 0 42 42" fill="none" xmlns="http://www.w3.org/2000/svg">
<g clip-path="url(#clip0_708_8)">
<path d="M27.6858 40.9104C27.467 40.9849 27.2468 41.0554 27.0254 41.1219C27.2477 41.0553 27.4671 40.9836 27.6858 40.9104ZM28.7829 40.5078C28.5468 40.602 28.3107 40.6946 28.0703 40.7801C28.3095 40.6937 28.547 40.6029 28.7829 40.5078Z" fill="#F9EDE0"/>
<path d="M21 42C32.598 42 42 32.598 42 21C42 9.40202 32.598 0 21 0C9.40202 0 0 9.40202 0 21C0 32.598 9.40202 42 21 42Z" fill="#ECECEC"/>
<path d="M19.4794 41.9383C19.2231 41.9202 18.9675 41.9006 18.7147 41.8731C18.9682 41.9006 19.2238 41.9202 19.4794 41.9383ZM16.0456 41.4053C15.8283 41.3525 15.6125 41.296 15.3975 41.2366C15.6125 41.2967 15.8283 41.3532 16.0456 41.4053ZM18.2802 41.8181C18.0511 41.7892 17.8225 41.7566 17.5945 41.7203C17.8211 41.7573 18.0507 41.7877 18.2802 41.8181ZM24.4079 41.7196C24.1805 41.7565 23.9517 41.7877 23.7221 41.8174C23.951 41.7877 24.1805 41.7573 24.4079 41.7196ZM30.0555 39.9505C29.738 40.1021 29.4169 40.2458 29.0923 40.3814C29.417 40.2461 29.7382 40.1024 30.0555 39.9505ZM29.0923 40.3814C28.991 40.4241 28.8874 40.4618 28.7853 40.5023C28.8867 40.4618 28.9902 40.4241 29.0923 40.3814ZM30.0844 39.9375C30.075 39.9418 30.0649 39.9462 30.0555 39.9505C30.0649 39.9462 30.075 39.9426 30.0844 39.9375ZM17.5938 41.7196C17.4441 41.6945 17.2947 41.668 17.1455 41.6399C17.2954 41.6675 17.4439 41.6957 17.5938 41.7196ZM19.8495 41.9665C19.7256 41.96 19.6025 41.947 19.4794 41.9383C19.6032 41.947 19.7256 41.96 19.8495 41.9665ZM13.2171 40.5031C13.115 40.4625 13.0114 40.4241 12.91 40.3821C13.0114 40.4241 13.115 40.4618 13.2171 40.5031ZM14.3141 40.9057C14.186 40.8622 14.0563 40.8209 13.9296 40.7753C14.0563 40.8209 14.1852 40.8622 14.3141 40.9057ZM23.7214 41.8181C23.5766 41.8369 23.4325 41.8579 23.2869 41.8731C23.4325 41.8572 23.5766 41.8369 23.7214 41.8181ZM25.9561 41.4053C25.8091 41.4408 25.6614 41.4748 25.5129 41.5074C25.6614 41.4756 25.8091 41.4415 25.9561 41.4053ZM15.3982 41.2373C15.257 41.1982 15.115 41.1591 14.9746 41.1171C15.115 41.1591 15.2562 41.1982 15.3982 41.2373Z" fill="#F9EDE0"/>
<path d="M25.8064 22.4423C28.1461 20.8847 29.6892 18.2264 29.6892 15.2053C29.6892 10.4064 25.7984 6.51562 20.9996 6.51562C16.2007 6.51562 12.3099 10.4064 12.3099 15.2053C12.3099 18.2264 13.8531 20.8847 16.1927 22.4423C16.1927 22.4423 16.1935 22.443 16.1942 22.443C16.1935 22.443 16.1935 22.4423 16.1935 22.4423C10.593 24.1303 6.23223 28.6757 4.82812 34.3942L4.82885 34.3949C5.05836 34.6707 5.29474 34.9406 5.53778 35.2045C5.59643 35.269 5.65799 35.3305 5.71809 35.3935C5.90437 35.5921 6.09437 35.7872 6.28799 35.9786C6.36837 36.0576 6.45019 36.1336 6.53202 36.2111C6.71129 36.3823 6.89356 36.5503 7.07875 36.7151C7.17071 36.7962 7.26412 36.8766 7.35681 36.9562C7.53857 37.1119 7.7225 37.2647 7.91006 37.4139C8.00854 37.4928 8.10775 37.5703 8.20695 37.6478C8.39669 37.7937 8.5891 37.9362 8.78409 38.075C8.88475 38.1467 8.98395 38.2198 9.08606 38.2901C9.29171 38.432 9.50099 38.5681 9.71171 38.7028C9.80657 38.7629 9.89926 38.8252 9.99485 38.8846C10.2389 39.0341 10.4859 39.1787 10.7356 39.3183C10.8015 39.3553 10.866 39.3951 10.9326 39.4313C11.2561 39.6087 11.5843 39.7774 11.9167 39.9375C11.9247 39.9411 11.9334 39.9447 11.9413 39.9483C12.2592 40.1004 12.5822 40.2445 12.9088 40.3807C13.0102 40.4234 13.1137 40.461 13.2158 40.5016C13.4519 40.5957 13.688 40.6884 13.9284 40.7739C14.0558 40.8195 14.1847 40.8608 14.3129 40.9042C14.5316 40.9781 14.7517 41.0498 14.9733 41.1157C15.1138 41.1577 15.255 41.1968 15.3969 41.2359C15.6113 41.2952 15.8271 41.3517 16.045 41.4046C16.4094 41.4929 16.7762 41.5709 17.145 41.6385C17.2942 41.666 17.4426 41.6942 17.5932 41.7181C17.8206 41.7551 18.0494 41.7862 18.279 41.8159C18.4238 41.8347 18.5679 41.8557 18.7135 41.8709C18.9669 41.8985 19.2225 41.918 19.4782 41.9361C19.602 41.9448 19.7244 41.9578 19.8482 41.9643C20.2298 41.9861 20.6129 41.9984 20.9996 41.9984C21.3863 41.9984 21.7693 41.9861 22.151 41.9658C22.2748 41.9593 22.3979 41.9462 22.521 41.9376C22.7773 41.9195 23.033 41.8999 23.2857 41.8724C23.4312 41.8565 23.5753 41.8362 23.7202 41.8173C23.9497 41.7877 24.1785 41.7565 24.4059 41.7196C24.5558 41.695 24.705 41.6675 24.8542 41.6399C25.223 41.5726 25.5898 41.4946 25.9541 41.406C26.1714 41.3532 26.3872 41.2967 26.6022 41.2373C26.7434 41.1982 26.8854 41.1591 27.0258 41.1171C27.2482 41.0505 27.4676 40.9788 27.6863 40.9057C27.8144 40.8622 27.9441 40.8209 28.0708 40.7753C28.3098 40.6886 28.5474 40.5979 28.7833 40.503C28.8854 40.4625 28.989 40.4241 29.0904 40.3821C29.415 40.2468 29.7362 40.1031 30.0535 39.9512C30.0629 39.9469 30.073 39.9426 30.0824 39.9382C30.4155 39.7782 30.7436 39.6087 31.0665 39.432C31.1332 39.3958 31.1976 39.356 31.2635 39.3191C31.5133 39.1794 31.7603 39.0348 32.0043 38.8853C32.0999 38.8267 32.1933 38.7644 32.2874 38.7036C32.4982 38.5689 32.7074 38.432 32.9131 38.2908C33.0145 38.2206 33.1144 38.1481 33.2151 38.0757C33.4097 37.9364 33.6021 37.794 33.7922 37.6485C33.892 37.5715 33.9909 37.4936 34.0891 37.4146C34.2761 37.2652 34.4606 37.1127 34.6423 36.9569C34.7357 36.8773 34.8292 36.7969 34.9204 36.7158C35.1056 36.551 35.2879 36.383 35.4671 36.2118C35.5482 36.1343 35.6308 36.0576 35.7112 35.9793C35.905 35.7881 36.095 35.593 36.2811 35.3942C36.3404 35.3305 36.402 35.269 36.4614 35.2052C36.704 34.9409 36.9415 34.6716 37.1703 34.3957L37.171 34.3949C35.7676 28.6757 31.4069 24.1303 25.8064 22.4423Z" fill="#CFCFCF"/>
</g>
<defs>
<clipPath id="clip0_708_8">
<rect width="42" height="42" fill="white"/>
</clipPath>
</defs>
</svg>
